<svg width="69" height="61" viewBox="0 0 69 61" fill="none" xmlns="http://www.w3.org/2000/svg">
<path fill-rule="evenodd" clip-rule="evenodd" d="M1.97093 41.4685H61.0881V35.2083H1.97093V41.4685ZM42.9 50.8606H46.1776V53.628H16.8813V50.8606H20.1582C20.7035 50.8606 21.1432 50.4458 21.1432 49.933V43.3246H41.9149V49.933C41.9149 50.4458 42.3555 50.8606 42.9 50.8606ZM1.97093 33.3522H61.0881V1.8546H1.97093V33.3522ZM0.98505 0C0.440571 0 0 0.414834 0 0.92769V42.3969C0 42.9106 0.440571 43.3254 0.98505 43.3254H19.1731V49.0053H15.8955C15.351 49.0053 14.9104 49.4225 14.9104 49.9337V54.5565C14.9104 55.0678 15.351 55.485 15.8955 55.485H47.1635C47.7072 55.485 48.1486 55.0678 48.1486 54.5565V49.933C48.1486 49.4217 47.7072 49.0045 47.1635 49.0045H43.885V43.3246H62.0731C62.6176 43.3246 63.059 42.909 63.059 42.3962V0.929259C63.059 0.415618 62.6176 0.000784221 62.0739 0.000784221H0.98505V0Z" fill="#62E0D9"/>
<path fill-rule="evenodd" clip-rule="evenodd" d="M30.1813 37.1201C29.6377 37.1201 29.1963 37.5357 29.1963 38.0486C29.1963 38.295 29.3001 38.5314 29.4848 38.7057C29.6695 38.8799 29.9201 38.9779 30.1813 38.9779C30.4426 38.9779 30.6931 38.8799 30.8779 38.7057C31.0626 38.5314 31.1664 38.295 31.1664 38.0486C31.1664 37.5365 30.725 37.1201 30.1813 37.1201Z" fill="#62E0D9"/>
<path d="M65.8773 18.2754H48.6726C47.5423 18.2754 46.626 19.1398 46.626 20.2061V57.7458C46.626 58.812 47.5423 59.6764 48.6726 59.6764H65.8773C67.0076 59.6764 67.9238 58.812 67.9238 57.7458V20.2061C67.9238 19.1398 67.0076 18.2754 65.8773 18.2754Z" fill="#181F2B" stroke="#62E0D9" stroke-width="1.641"/>
<path fill-rule="evenodd" clip-rule="evenodd" d="M46.5508 22.8438H67.9999V23.6279H46.5508V22.8438ZM46.5508 52.54H67.9999V53.3242H46.5508V52.54Z" fill="white" stroke="#62E0D9" stroke-width="1.458"/>
<path d="M56.7829 56.6073C57.3269 56.6073 57.768 56.192 57.768 55.6796C57.768 55.1673 57.3269 54.752 56.7829 54.752C56.2389 54.752 55.7979 55.1673 55.7979 55.6796C55.7979 56.192 56.2389 56.6073 56.7829 56.6073Z" stroke="#62E0D9" stroke-width="1.01"/>
<path fill-rule="evenodd" clip-rule="evenodd" d="M37.6526 12.0645H37.4888L33.1372 13.6877L28.2103 12.0645L23.6125 13.534C23.4479 13.6109 23.2842 13.6885 23.2842 13.9206V25.5971C23.2842 25.83 23.4479 25.9845 23.6948 25.9845H23.8586L28.2103 24.3605L33.1372 25.9837L37.7349 24.515C37.8995 24.4373 38.0633 24.2828 38.0633 24.1284V12.4511C38.0633 12.2189 37.8995 12.0645 37.6526 12.0645ZM33.1372 23.6633L28.2103 22.0973V13.2243L33.1372 14.7903V23.6633Z" fill="#62E0D9"/>
<path fill-rule="evenodd" clip-rule="evenodd" d="M25.2543 12.0645C24.157 12.0645 23.2842 12.7836 23.2842 13.6877C23.2842 14.8954 25.2543 16.7045 25.2543 16.7045C25.2543 16.7045 27.2252 14.8946 27.2252 13.6885C27.2252 12.7836 26.3516 12.0645 25.2543 12.0645ZM25.2543 14.3841C24.8303 14.3841 24.497 14.101 24.497 13.7403C24.497 13.3795 24.8295 13.0957 25.2543 13.0957C25.6791 13.0957 26.0124 13.3787 26.0124 13.7403C26.0124 14.101 25.6791 14.3841 25.2543 14.3841Z" fill="white"/>
</svg>
