<svg width="69" height="60" viewBox="0 0 69 60" fill="none" xmlns="http://www.w3.org/2000/svg">
<g clip-path="url(#clip0_589_1098)">
<path d="M64.8867 47.7296C66.7343 47.7296 68.2316 46.5108 68.2316 45.0063V15.0493C68.2316 14.0471 67.2324 13.2341 66.0019 13.2341L64.8867 47.7296ZM64.8867 47.7296H16.6183C13.7207 47.7296 11.3721 45.6991 11.3721 43.1951V16.8959C11.3729 16.4144 11.5944 15.9529 11.9879 15.6127C12.3814 15.2726 12.9147 15.0818 13.4706 15.0821H42.851L47.048 9.64063H59.6405C60.1964 9.64028 60.7297 9.83114 61.1232 10.1713C61.5167 10.5114 61.7382 10.9729 61.739 11.4545V45.0089C61.7394 45.3666 61.8211 45.7207 61.9795 46.051C62.1379 46.3814 62.3699 46.6814 62.6622 46.9341C62.9545 47.1867 63.3014 47.387 63.6831 47.5235C64.0648 47.66 64.4738 47.7301 64.8867 47.7296Z" stroke="#62E0D9" stroke-width="1.405" stroke-linecap="round" stroke-linejoin="round"/>
<path fill-rule="evenodd" clip-rule="evenodd" d="M31.2954 27.0832V29.1853C31.2954 29.8821 31.933 30.4462 32.7207 30.4462H35.0936M36.9927 30.4462V30.3024C36.9927 29.8565 36.7926 29.429 36.4363 29.1131L32.8018 25.8939C32.6271 25.7384 32.4182 25.6148 32.1875 25.5302C31.9568 25.4456 31.7089 25.4018 31.4584 25.4014H20.8522C19.8022 25.4014 18.9531 26.1546 18.9531 27.0832V44.7421C18.9531 45.6706 19.803 46.4232 20.8522 46.4232H35.0936C36.1421 46.4232 36.9927 45.6706 36.9927 44.7421V38.856" fill="#62E0D9"/>
<path d="M37.4671 35.9125L28.4469 43.9007H25.5986V41.379V41.3783L34.6188 33.3901M37.4671 35.9125L34.6188 33.3901M37.4671 35.9125L38.4739 35.0207C38.7416 34.7817 38.8914 34.4617 38.8914 34.1286C38.8914 33.7955 38.7416 33.4755 38.4739 33.2365L37.64 32.4983C37.5092 32.3814 37.3527 32.2885 37.1797 32.2251C37.0066 32.1616 36.8207 32.1289 36.6328 32.1289C36.4449 32.1289 36.2589 32.1616 36.0859 32.2251C35.9129 32.2885 35.7564 32.3814 35.6256 32.4983L34.6188 33.3901" stroke="white" stroke-width="0.803" stroke-linejoin="round"/>
<path d="M22.7508 33.8105H32.2448M22.75 36.333H31.2956M22.75 38.856H28.4466" stroke="white" stroke-width="0.803" stroke-linecap="round" stroke-linejoin="round"/>
<path fill-rule="evenodd" clip-rule="evenodd" d="M24.5383 48.014C24.5383 49.309 23.3177 50.3598 21.8121 50.3598H2.72622C1.22134 50.3598 0 49.309 0 48.014V36.2852C0 34.9902 1.22058 33.9395 2.72622 33.9395H21.8121C23.3169 33.9395 24.5383 34.9902 24.5383 36.2852V48.014ZM8.17943 38.2409C8.17722 38.761 7.93662 39.2591 7.51054 39.6256C7.08446 39.9921 6.50778 40.197 5.90732 40.1952C5.30686 40.197 4.73019 39.9921 4.30411 39.6256C3.87802 39.2591 3.63743 38.761 3.63522 38.2409C3.63621 37.9833 3.69577 37.7284 3.81049 37.4907C3.92521 37.2531 4.09285 37.0373 4.30384 36.8558C4.51482 36.6742 4.76502 36.5304 5.04015 36.4327C5.31527 36.3349 5.60994 36.285 5.90732 36.2859C6.2047 36.285 6.49937 36.3349 6.7745 36.4327C7.04962 36.5304 7.29982 36.6742 7.51081 36.8558C7.72179 37.0373 7.88943 37.2531 8.00415 37.4907C8.11888 37.7284 8.17843 37.9833 8.17943 38.2409Z" fill="#62E0D9"/>
<path d="M20.3077 47.505L14.9636 42.6086L12.737 44.649L9.6196 41.793L3.38477 47.505" stroke="white" stroke-width="0.65" stroke-linecap="round" stroke-linejoin="round"/>
</g>
<defs>
<clipPath id="clip0_589_1098">
<rect width="68.2312" height="60" fill="white"/>
</clipPath>
</defs>
</svg>
