<svg width="68" height="60" viewBox="0 0 68 60" fill="none" xmlns="http://www.w3.org/2000/svg">
<path d="M27.5082 12.7989V14.2459M27.5082 41.7477V43.1954M41.9911 28.7207H40.5428M13.0254 28.7207H11.5764M26.7837 34.5103C26.2275 34.5103 25.6713 34.299 25.2484 33.8749L15.9212 24.5537L18.9932 21.484L26.7837 29.2697L46.2475 9.81628L49.3209 12.886L28.3204 33.8742C28.1187 34.0762 27.879 34.2362 27.6153 34.3453C27.3516 34.4543 27.069 34.5108 26.7837 34.5103ZM43.2946 12.796C39.1929 8.34853 33.3142 5.56152 26.783 5.56152C14.386 5.56152 4.33496 15.6066 4.33496 27.9968C4.33496 40.387 14.386 50.4328 26.7837 50.4328C39.1815 50.4328 49.2325 40.387 49.2325 27.9968C49.2325 23.7006 48.0245 19.6872 45.9309 16.2769L43.2946 12.796ZM40.2034 15.8529C38.5064 13.9768 36.4352 12.478 34.1235 11.4533C31.8118 10.4287 29.3112 9.90087 26.783 9.90409C16.7841 9.90409 8.6791 18.0038 8.6791 27.9968C8.6791 37.9905 16.7841 46.0902 26.783 46.0902C36.782 46.0902 44.8869 37.9905 44.8869 27.9968C44.8869 24.9064 44.1118 21.9987 42.7462 19.4545L40.2034 15.8529Z" stroke="#62E0D9" stroke-width="1.3" stroke-linecap="round" stroke-linejoin="round"/>
<path fill-rule="evenodd" clip-rule="evenodd" d="M42.8185 33.6057C42.8185 35.3762 41.3817 36.8111 39.6111 36.8111C38.7613 36.8117 37.946 36.4743 37.3447 35.8732C36.7433 35.2721 36.4051 34.4565 36.4043 33.6057C36.4043 31.8353 37.8412 30.4004 39.6111 30.4004C40.0319 30.4 40.4487 30.4826 40.8376 30.6435C41.2266 30.8044 41.5801 31.0404 41.8779 31.338C42.1757 31.6357 42.4121 31.9891 42.5735 32.3782C42.7349 32.7673 42.8182 33.1844 42.8185 33.6057Z" stroke="#62E0D9" stroke-width="1.3" stroke-linejoin="round"/>
<path fill-rule="evenodd" clip-rule="evenodd" d="M39.6113 36.8113C38.2579 36.8113 37.0356 37.2275 36.1607 37.6351C35.752 37.8294 35.407 38.1363 35.1662 38.5197C34.9254 38.9032 34.7986 39.3474 34.8008 39.8003V44.8239C34.8014 45.2493 34.9706 45.657 35.2713 45.9576C35.572 46.2581 35.9796 46.4268 36.4045 46.4266V52.8366C36.4047 53.0472 36.4464 53.2558 36.5271 53.4503C36.6078 53.6449 36.7259 53.8216 36.8749 53.9704C37.0238 54.1192 37.2005 54.2372 37.395 54.3177C37.5895 54.3981 37.7979 54.4394 38.0083 54.4392H41.215C41.4255 54.4394 41.6339 54.3981 41.8283 54.3177C42.0228 54.2372 42.1995 54.1192 42.3485 53.9704C42.4974 53.8216 42.6156 53.6449 42.6963 53.4503C42.777 53.2558 42.8186 53.0472 42.8188 52.8366V46.4259C43.2434 46.4259 43.6507 46.2572 43.9513 45.9568C44.2518 45.6565 44.4211 45.249 44.4218 44.8239V39.7996C44.424 39.3466 44.2972 38.9025 44.0564 38.519C43.8156 38.1355 43.4706 37.8287 43.0619 37.6344C42.1877 37.2275 40.9655 36.8113 39.6113 36.8113Z" stroke="#62E0D9" stroke-width="1.3" stroke-linecap="round" stroke-linejoin="round"/>
<path fill-rule="evenodd" clip-rule="evenodd" d="M52.4396 33.6057C52.4396 35.3762 51.0035 36.8111 49.2322 36.8111C48.8113 36.8115 48.3946 36.7288 48.0057 36.568C47.6168 36.4071 47.2633 36.1711 46.9656 35.8734C46.6678 35.5757 46.4315 35.2223 46.2702 34.8332C46.1088 34.4441 46.0257 34.027 46.0254 33.6057C46.0254 31.8353 47.4616 30.4004 49.2322 30.4004C49.653 30.4 50.0697 30.4826 50.4586 30.6435C50.8475 30.8044 51.201 31.0404 51.4987 31.3381C51.7965 31.6357 52.0328 31.9892 52.1941 32.3783C52.3555 32.7674 52.4393 33.1845 52.4396 33.6057Z" stroke="#62E0D9" stroke-width="1.3" stroke-linejoin="round"/>
<path fill-rule="evenodd" clip-rule="evenodd" d="M49.2324 36.8113C47.879 36.8113 46.6567 37.2275 45.7818 37.6351C45.3731 37.8294 45.0281 38.1363 44.7873 38.5197C44.5465 38.9032 44.4197 39.3474 44.4219 39.8003V44.8239C44.4221 45.0346 44.4637 45.2431 44.5444 45.4377C44.6251 45.6322 44.7433 45.8089 44.8922 45.9578C45.0411 46.1066 45.2179 46.2246 45.4124 46.305C45.6068 46.3855 45.8152 46.4268 46.0256 46.4266V52.8366C46.0262 53.2619 46.1954 53.6697 46.4962 53.9702C46.7969 54.2707 47.2045 54.4394 47.6294 54.4392H50.8361C51.261 54.4394 51.6685 54.2707 51.9691 53.9702C52.2697 53.6696 52.4388 53.2619 52.4392 52.8366V46.4259C52.6496 46.4262 52.858 46.3849 53.0525 46.3046C53.247 46.2242 53.4238 46.1063 53.5728 45.9576C53.7218 45.8088 53.84 45.6321 53.9208 45.4376C54.0016 45.2431 54.0433 45.0346 54.0436 44.8239V39.7996C54.0457 39.3466 53.9189 38.9023 53.6779 38.5189C53.437 38.1354 53.0919 37.8286 52.683 37.6344C51.8088 37.2275 50.5858 36.8113 49.2324 36.8113Z" stroke="#62E0D9" stroke-width="1.3" stroke-linecap="round" stroke-linejoin="round"/>
<path fill-rule="evenodd" clip-rule="evenodd" d="M62.06 33.6057C62.06 35.3762 60.6246 36.8111 58.8532 36.8111C58.4324 36.8115 58.0157 36.7288 57.6268 36.568C57.2379 36.4071 56.8844 36.1711 56.5867 35.8734C56.2889 35.5757 56.0526 35.2223 55.8913 34.8332C55.7299 34.4441 55.6468 34.027 55.6465 33.6057C55.6465 31.8353 57.0819 30.4004 58.8532 30.4004C59.274 30.4 59.6908 30.4826 60.0797 30.6435C60.4686 30.8044 60.8221 31.0404 61.1198 31.3381C61.4176 31.6357 61.6539 31.9892 61.8152 32.3783C61.9766 32.7674 62.0597 33.1845 62.06 33.6057Z" stroke="#62E0D9" stroke-width="1.3" stroke-linejoin="round"/>
<path fill-rule="evenodd" clip-rule="evenodd" d="M58.8535 36.8113C57.5001 36.8113 56.2778 37.2275 55.4029 37.6351C54.9942 37.8294 54.6492 38.1363 54.4084 38.5197C54.1676 38.9032 54.0408 39.3474 54.043 39.8003V44.8239C54.0432 45.0346 54.0848 45.2431 54.1655 45.4377C54.2462 45.6322 54.3644 45.8089 54.5133 45.9578C54.6622 46.1066 54.839 46.2246 55.0334 46.305C55.2279 46.3855 55.4363 46.4268 55.6467 46.4266V52.8366C55.6473 53.2618 55.8164 53.6695 56.117 53.97C56.4176 54.2705 56.825 54.4392 57.2498 54.4392H60.4572C60.8821 54.4394 61.2896 54.2707 61.5902 53.9702C61.8908 53.6696 62.0599 53.2619 62.0603 52.8366V46.4259C62.4851 46.4263 62.8927 46.2577 63.1934 45.9573C63.4942 45.6569 63.6634 45.2492 63.664 44.8239V39.7996C63.6662 39.3466 63.5394 38.9025 63.2986 38.519C63.0578 38.1355 62.7128 37.8287 62.3041 37.6344C61.4299 37.2275 60.2069 36.8113 58.8535 36.8113Z" stroke="#62E0D9" stroke-width="1.3" stroke-linecap="round" stroke-linejoin="round"/>
</svg>
