<svg width="16" height="17" viewBox="0 0 16 17" fill="none" xmlns="http://www.w3.org/2000/svg">
<g clip-path="url(#clip0_605_1226)">
<g filter="url(#filter0_d_605_1226)">
<path d="M8 14.0107C11.3137 14.0107 14 11.3245 14 8.01074C14 4.69703 11.3137 2.01074 8 2.01074C4.68629 2.01074 2 4.69703 2 8.01074C2 11.3245 4.68629 14.0107 8 14.0107Z" fill="black"/>
</g>
<path d="M8 14.0107C11.3137 14.0107 14 11.3245 14 8.01074C14 4.69703 11.3137 2.01074 8 2.01074C4.68629 2.01074 2 4.69703 2 8.01074C2 11.3245 4.68629 14.0107 8 14.0107Z" fill="white"/>
<path fill-rule="evenodd" clip-rule="evenodd" d="M8.58201 6.01074L8.21901 6.36074L9.67101 7.76074H5.33301V8.26074H9.67101L8.22001 9.66074L8.58301 10.0107L10.657 8.01074L8.58201 6.01074Z" fill="#1B2330"/>
</g>
<defs>
<filter id="filter0_d_605_1226" x="0" y="0.0107422" width="16" height="16" filterUnits="userSpaceOnUse" color-interpolation-filters="sRGB">
<feFlood flood-opacity="0" result="BackgroundImageFix"/>
<feColorMatrix in="SourceAlpha" type="matrix" values="0 0 0 0 0 0 0 0 0 0 0 0 0 0 0 0 0 0 127 0" result="hardAlpha"/>
<feOffset/>
<feGaussianBlur stdDeviation="1"/>
<feColorMatrix type="matrix" values="0 0 0 0 1 0 0 0 0 1 0 0 0 0 1 0 0 0 1 0"/>
<feBlend mode="normal" in2="BackgroundImageFix" result="effect1_dropShadow_605_1226"/>
<feBlend mode="normal" in="SourceGraphic" in2="effect1_dropShadow_605_1226" result="shape"/>
</filter>
<clipPath id="clip0_605_1226">
<rect width="16" height="16" fill="white" transform="translate(0 0.0107422)"/>
</clipPath>
</defs>
</svg>
