<svg width="33" height="33" viewBox="0 0 33 33" fill="none" xmlns="http://www.w3.org/2000/svg">
<path d="M16.4555 12.0149C14.184 12.0149 12.3519 13.8185 12.3519 16.0544C12.3519 18.2903 14.184 20.0938 16.4555 20.0938C18.7269 20.0938 20.559 18.2903 20.559 16.0544C20.559 13.8185 18.7269 12.0149 16.4555 12.0149ZM16.4555 18.6806C14.9876 18.6806 13.7876 17.5028 13.7876 16.0544C13.7876 14.606 14.984 13.4282 16.4555 13.4282C17.9269 13.4282 19.1233 14.606 19.1233 16.0544C19.1233 17.5028 17.9233 18.6806 16.4555 18.6806ZM21.684 11.8497C21.684 12.3735 21.2555 12.7919 20.7269 12.7919C20.1948 12.7919 19.7698 12.37 19.7698 11.8497C19.7698 11.3294 20.1983 10.9075 20.7269 10.9075C21.2555 10.9075 21.684 11.3294 21.684 11.8497ZM24.4019 12.806C24.3412 11.5438 24.0483 10.4259 23.109 9.50479C22.1733 8.58369 21.0376 8.29541 19.7555 8.23213C18.434 8.1583 14.4733 8.1583 13.1519 8.23213C11.8733 8.29189 10.7376 8.58018 9.79833 9.50127C8.85904 10.4224 8.56975 11.5403 8.50547 12.8024C8.43047 14.1032 8.43047 18.002 8.50547 19.3028C8.56618 20.5649 8.85904 21.6829 9.79833 22.604C10.7376 23.5251 11.8698 23.8134 13.1519 23.8767C14.4733 23.9505 18.434 23.9505 19.7555 23.8767C21.0376 23.8169 22.1733 23.5286 23.109 22.604C24.0448 21.6829 24.3376 20.5649 24.4019 19.3028C24.4769 18.002 24.4769 14.1067 24.4019 12.806ZM22.6948 20.6985C22.4162 21.3876 21.8769 21.9185 21.1733 22.1962C20.1198 22.6075 17.6198 22.5126 16.4555 22.5126C15.2912 22.5126 12.7876 22.604 11.7376 22.1962C11.0376 21.922 10.4983 21.3911 10.2162 20.6985C9.79833 19.6614 9.89475 17.2005 9.89475 16.0544C9.89475 14.9083 9.8019 12.4438 10.2162 11.4103C10.4948 10.7212 11.034 10.1903 11.7376 9.9126C12.7912 9.50127 15.2912 9.59619 16.4555 9.59619C17.6198 9.59619 20.1233 9.50479 21.1733 9.9126C21.8733 10.1868 22.4126 10.7177 22.6948 11.4103C23.1126 12.4474 23.0162 14.9083 23.0162 16.0544C23.0162 17.2005 23.1126 19.6649 22.6948 20.6985Z" fill="white"/>
<rect x="0.954102" y="0.554688" width="31" height="31" rx="15.5" stroke="white"/>
</svg>
