<svg width="68" height="66" viewBox="0 0 68 66" fill="none" xmlns="http://www.w3.org/2000/svg">
<path fill-rule="evenodd" clip-rule="evenodd" d="M40.407 26.9192L31.6929 35.8072L25.2808 29.2683L22.0752 32.5381L31.6922 42.3468L46.3759 27.3723L43.1695 24.1025L40.407 26.9192Z" stroke="#62E0D9" stroke-width="3.064"/>
<path fill-rule="evenodd" clip-rule="evenodd" d="M49.8222 8.64147C46.0158 8.64147 42.2316 7.83204 38.7908 6.15903C37.1428 5.36599 35.4569 4.35421 33.9998 3.09375C32.5427 4.35421 30.8569 5.36599 29.2081 6.15903C25.768 7.83204 21.9845 8.64147 18.1775 8.64147H10.6318V37.5629C10.6318 42.6289 12.639 47.499 16.2088 51.0246C21.4501 56.1904 34.0005 62.9053 34.0005 62.9053C34.0005 62.9053 46.5495 56.1904 51.7909 51.0246C55.3606 47.499 57.3678 42.6282 57.3678 37.5629V8.64147H49.8222Z" stroke="#62E0D9" stroke-width="3.064"/>
<path fill-rule="evenodd" clip-rule="evenodd" d="M51.2653 19.1023V37.8053C51.2653 41.1841 49.9094 44.4603 47.5466 46.7939C44.2605 50.0337 36.7683 54.4678 34.0015 56.0567C31.2327 54.4656 23.734 50.0266 20.4514 46.791C18.0901 44.4596 16.7363 41.1841 16.7363 37.8053V15.1086H18.1785C22.9574 15.1086 27.6793 14.0405 31.8355 12.0212C32.5721 11.667 33.2946 11.2843 34.0015 10.874C34.6941 11.2766 35.4266 11.6649 36.1847 12.0305C40.3273 14.044 45.0443 15.1086 49.8232 15.1086H51.2653V19.1023Z" stroke="#62E0D9" stroke-width="3.064"/>
</svg>
