<svg width="33" height="33" viewBox="0 0 33 33" fill="none" xmlns="http://www.w3.org/2000/svg">
<path d="M22.4123 13.0453C22.4218 13.1765 22.4218 13.3078 22.4218 13.4391C22.4218 17.4422 19.3285 22.0547 13.6749 22.0547C11.9332 22.0547 10.3152 21.5578 8.9541 20.6953C9.20157 20.7234 9.43949 20.7328 9.69649 20.7328C11.1337 20.7328 12.4566 20.2547 13.5131 19.4391C12.1616 19.4109 11.029 18.5391 10.6387 17.3391C10.8291 17.3672 11.0195 17.3859 11.2193 17.3859C11.4954 17.3859 11.7714 17.3484 12.0284 17.2828C10.6197 17.0015 9.56322 15.7828 9.56322 14.3109V14.2734C9.97246 14.4984 10.4484 14.6391 10.9528 14.6578C10.1248 14.114 9.58226 13.1859 9.58226 12.1359C9.58226 11.5734 9.73451 11.0578 10.001 10.6078C11.5144 12.4453 13.7891 13.6453 16.3399 13.7765C16.2923 13.5515 16.2637 13.3172 16.2637 13.0828C16.2637 11.414 17.6343 10.0547 19.338 10.0547C20.2231 10.0547 21.0226 10.4203 21.5842 11.0109C22.279 10.8797 22.9452 10.6266 23.5353 10.2797C23.3069 10.9828 22.8215 11.5735 22.1838 11.9484C22.8025 11.8828 23.4021 11.714 23.9541 11.4797C23.5354 12.0797 23.0119 12.614 22.4123 13.0453Z" fill="white"/>
<rect x="0.954102" y="0.554688" width="31" height="31" rx="15.5" stroke="white"/>
</svg>
