<svg width="237" height="209" viewBox="0 0 237 209" fill="none" xmlns="http://www.w3.org/2000/svg">
<g clip-path="url(#clip0_555_442)">
<path opacity="0.099" d="M115.013 205.585L5.08932 139.08C1.58865 137.066 -1.41052 133.765 1.99968 131.6L112.314 66.5124C113.968 65.463 116.48 64.7735 118.166 65.7768L233.538 134.336C237.038 136.416 237.666 142.21 234.179 144.311L129.499 205.48C127.313 206.783 124.817 207.48 122.27 207.499C119.723 207.517 117.218 206.857 115.013 205.585Z" fill="#6862E6"/>
</g>
<path d="M113.593 175.349L5.04441 111.21C1.58062 109.242 -1.38131 106.083 1.98407 103.997L110.936 41.2259C112.56 40.2419 115.049 39.5531 116.712 40.5174L230.643 106.634C234.107 108.602 234.727 114.231 231.283 116.258L127.901 175.3C125.726 176.551 123.262 177.213 120.753 177.222C118.244 177.231 115.776 176.585 113.593 175.349Z" fill="#5B36A0"/>
<path d="M113.593 172.388L5.04441 108.249C1.58062 106.281 -1.38131 103.122 1.98407 101.036L110.936 38.2645C112.56 37.2805 115.049 36.5916 116.712 37.556L230.643 103.673C234.107 105.641 234.727 111.27 231.283 113.297L127.901 172.339C125.726 173.589 123.262 174.252 120.753 174.261C118.244 174.269 115.776 173.624 113.593 172.388Z" fill="#6862E6"/>
<path opacity="0.25" d="M122.528 87.7705L101.125 99.9823C101.125 99.9823 134.12 120.116 140.87 122.95L153.21 105.237" fill="url(#paint0_linear_555_442)"/>
<path opacity="0.25" d="M115.148 146.39L93.7258 134.198L72.3428 146.419C72.3428 146.419 83.5017 153.229 94.1686 159.477C100.88 154.685 107.669 149.844 115.148 146.39Z" fill="url(#paint1_linear_555_442)"/>
<path opacity="0.46" d="M68.9869 71.0815L55.3975 78.8357C55.3975 78.8357 56.5488 85.9404 63.2697 88.7842L81.0905 77.3892" fill="url(#paint2_linear_555_442)"/>
<path d="M75.6394 78.8361C80.1664 78.8361 83.8363 76.2543 83.8363 73.0696C83.8363 69.8849 80.1664 67.3032 75.6394 67.3032C71.1123 67.3032 67.4424 69.8849 67.4424 73.0696C67.4424 76.2543 71.1123 78.8361 75.6394 78.8361Z" fill="#68E1FD"/>
<path d="M75.6286 72.1738C79.0198 72.1738 81.769 71.0504 81.769 69.6646C81.769 68.2787 79.0198 67.1553 75.6286 67.1553C72.2374 67.1553 69.4883 68.2787 69.4883 69.6646C69.4883 71.0504 72.2374 72.1738 75.6286 72.1738Z" fill="#974C26"/>
<path d="M75.4123 65.4433C75.4123 64.3116 75.4123 63.18 75.2844 62.0484L75.1958 61.1627L75.1368 60.592C75.1245 60.393 75.0948 60.1955 75.0482 60.0016L74.9302 59.3128C74.2597 55.467 72.7659 51.8115 70.5512 48.5967C69.7172 50.5801 69.2986 52.7134 69.3212 54.865C69.3212 55.5046 69.3802 56.1344 69.4294 56.7346V57.0987C69.4294 57.4037 69.5377 57.7383 69.5967 58.0138C69.8495 59.166 70.1782 60.3001 70.5807 61.4088C70.9431 62.4271 71.3873 63.4143 71.9092 64.3608C72.4701 65.4334 73.0703 66.4765 73.7296 67.4999C74.2315 68.297 74.7137 69.0055 75.1958 69.6844C75.3412 68.2754 75.4134 66.8598 75.4123 65.4433ZM72.1847 52.7394C72.2141 52.5933 72.2141 52.4428 72.1847 52.2966C72.3422 52.4541 72.4996 52.6214 72.6472 52.7886C72.4944 52.7592 72.3375 52.7592 72.1847 52.7886V52.7394Z" fill="#999A1C"/>
<path d="M77.5182 66.3484C78.1462 65.3969 78.7211 64.4113 79.2402 63.3963C79.3878 63.1306 79.5158 62.8748 79.6535 62.6091L79.9094 62.0876L80.1554 61.5463C80.2439 61.3298 80.3423 61.1134 80.4309 60.9067C81.9463 57.3081 82.6647 53.4241 82.5367 49.5215C80.7577 50.7374 79.25 52.3088 78.1086 54.1366C77.774 54.668 77.469 55.2092 77.1836 55.7602L77.0557 55.9964V56.0948L76.7014 56.9509C76.295 58.055 75.9662 59.1861 75.7174 60.336C75.4704 61.3942 75.3059 62.4701 75.2254 63.5538C75.1171 64.7543 75.0581 65.9548 75.0581 67.1651C75.0581 68.1492 75.0581 68.9659 75.1171 69.7925C75.9044 68.6904 76.7506 67.5391 77.5182 66.3484ZM81.6905 53.8906C81.792 53.7778 81.8661 53.6431 81.907 53.497C81.907 53.7233 81.9955 53.9299 82.025 54.1366C81.9289 54.0355 81.8156 53.9522 81.6905 53.8906Z" fill="#999A1C"/>
<path d="M77.4695 69.1727C78.1091 68.848 78.7389 68.5134 79.3687 68.1395L79.8509 67.8541L80.1559 67.6573L80.461 67.4408L80.8152 67.185C82.7929 65.7314 84.4341 63.8686 85.6271 61.7236C84.2763 61.8128 82.9575 62.1743 81.75 62.7864C81.4056 62.9635 81.0711 63.1603 80.766 63.367L80.6184 63.4555L80.1461 63.8098C79.5638 64.269 79.0146 64.7688 78.5027 65.3055C78.0324 65.7984 77.5983 66.3245 77.2038 66.8799C76.7512 67.5196 76.3379 68.1493 75.9344 68.7791C75.531 69.4089 75.3637 69.7632 75.1177 70.2257C75.8557 69.9206 76.6724 69.5664 77.4695 69.1727ZM83.7476 63.7901C83.8375 63.76 83.921 63.7132 83.9936 63.6523C83.9936 63.7901 83.8952 63.918 83.8362 64.0459C83.8261 63.9582 83.7958 63.874 83.7476 63.7999V63.7901Z" fill="#999A1C"/>
<path d="M75.4123 65.4433C75.4123 64.3116 75.4123 63.18 75.2844 62.0484L75.1958 61.1627L75.1368 60.592C75.1245 60.393 75.0948 60.1955 75.0482 60.0016L74.9302 59.3128C74.2597 55.467 72.7659 51.8115 70.5512 48.5967C69.7172 50.5801 69.2986 52.7134 69.3212 54.865C69.3212 55.5046 69.3802 56.1344 69.4294 56.7346V57.0987C69.4294 57.4037 69.5377 57.7383 69.5967 58.0138C69.8495 59.166 70.1782 60.3001 70.5807 61.4088C70.9431 62.4271 71.3873 63.4143 71.9092 64.3608C72.4701 65.4334 73.0703 66.4765 73.7296 67.4999C74.2315 68.297 74.7137 69.0055 75.1958 69.6844C75.3412 68.2754 75.4134 66.8598 75.4123 65.4433ZM72.1847 52.7394C72.2141 52.5933 72.2141 52.4428 72.1847 52.2966C72.3422 52.4541 72.4996 52.6214 72.6472 52.7886C72.4944 52.7592 72.3375 52.7592 72.1847 52.7886V52.7394Z" fill="#999A1C"/>
<path d="M77.5182 66.3484C78.1462 65.3969 78.7211 64.4113 79.2402 63.3963C79.3878 63.1306 79.5158 62.8748 79.6535 62.6091L79.9094 62.0876L80.1554 61.5463C80.2439 61.3298 80.3423 61.1134 80.4309 60.9067C81.9463 57.3081 82.6647 53.4241 82.5367 49.5215C80.7577 50.7374 79.25 52.3088 78.1086 54.1366C77.774 54.668 77.469 55.2092 77.1836 55.7602L77.0557 55.9964V56.0948L76.7014 56.9509C76.295 58.055 75.9662 59.1861 75.7174 60.336C75.4704 61.3942 75.3059 62.4701 75.2254 63.5538C75.1171 64.7543 75.0581 65.9548 75.0581 67.1651C75.0581 68.1492 75.0581 68.9659 75.1171 69.7925C75.9044 68.6904 76.7506 67.5391 77.5182 66.3484ZM81.6905 53.8906C81.792 53.7778 81.8661 53.6431 81.907 53.497C81.907 53.7233 81.9955 53.9299 82.025 54.1366C81.9289 54.0355 81.8156 53.9522 81.6905 53.8906Z" fill="#999A1C"/>
<path d="M77.4695 69.1727C78.1091 68.848 78.7389 68.5134 79.3687 68.1395L79.8509 67.8541L80.1559 67.6573L80.461 67.4408L80.8152 67.185C82.7929 65.7314 84.4341 63.8686 85.6271 61.7236C84.2763 61.8128 82.9575 62.1743 81.75 62.7864C81.4056 62.9635 81.0711 63.1603 80.766 63.367L80.6184 63.4555L80.1461 63.8098C79.5638 64.269 79.0146 64.7688 78.5027 65.3055C78.0324 65.7984 77.5983 66.3245 77.2038 66.8799C76.7512 67.5196 76.3379 68.1493 75.9344 68.7791C75.531 69.4089 75.3637 69.7632 75.1177 70.2257C75.8557 69.9206 76.6724 69.5664 77.4695 69.1727ZM83.7476 63.7901C83.8375 63.76 83.921 63.7132 83.9936 63.6523C83.9936 63.7901 83.8952 63.918 83.8362 64.0459C83.8261 63.9582 83.7958 63.874 83.7476 63.7999V63.7901Z" fill="#999A1C"/>
<path d="M131.05 82.999L119.242 88.6966C118.789 88.9022 118.401 89.2286 118.122 89.64C117.842 90.0514 117.682 90.5319 117.657 91.0287C117.638 91.5237 117.754 92.0147 117.991 92.4495C118.228 92.8844 118.579 93.2469 119.005 93.4986L147.129 109.902C147.737 110.257 148.458 110.363 149.142 110.198C149.827 110.033 150.42 109.61 150.799 109.017L157.629 98.3991" fill="#A1482D"/>
<path d="M195.533 55.5242L100.998 1.06801C100.35 0.695261 99.6158 0.499374 98.8686 0.500002C98.1214 0.500629 97.3875 0.697748 96.7405 1.07158C96.0935 1.44542 95.5562 1.98282 95.1825 2.62988C94.8088 3.27694 94.6118 4.0109 94.6113 4.75812V61.4186C94.6151 62.036 94.7806 62.6416 95.0914 63.1751C95.4022 63.7087 95.8474 64.1514 96.3826 64.4592L197.167 122.615C197.513 122.819 197.906 122.927 198.307 122.929C198.709 122.93 199.103 122.826 199.451 122.626C199.799 122.426 200.087 122.138 200.288 121.79C200.488 121.443 200.593 121.049 200.591 120.647V64.2427C200.591 62.4728 200.123 60.7343 199.235 59.2033C198.347 57.6723 197.07 56.4032 195.533 55.5242Z" fill="#F47B56"/>
<path d="M101.007 5.34916L192.689 58.0833C193.667 58.6479 194.479 59.4597 195.044 60.4373C195.609 61.4149 195.906 62.5239 195.907 63.653V106.124C195.899 106.526 195.786 106.92 195.579 107.265C195.373 107.611 195.08 107.897 194.73 108.096C194.38 108.294 193.984 108.398 193.581 108.398C193.179 108.397 192.783 108.291 192.433 108.092L98.9112 54.5212C98.5631 54.3225 98.2729 54.0365 98.0692 53.6913C97.8656 53.3462 97.7555 52.9538 97.75 52.5531V7.21882C97.7528 6.84212 97.8539 6.47268 98.0433 6.14701C98.2327 5.82135 98.5037 5.55073 98.8297 5.36191C99.1556 5.17308 99.5253 5.07259 99.902 5.07035C100.279 5.06811 100.649 5.16422 100.978 5.34916H101.007Z" fill="white"/>
<path d="M139.583 85.4583C140.667 85.2497 141.351 84.0769 141.113 82.8388C140.875 81.6007 139.803 80.7662 138.72 80.9748C137.637 81.1834 136.952 82.3562 137.19 83.5943C137.428 84.8324 138.5 85.6669 139.583 85.4583Z" fill="#AB643C"/>
<path opacity="0.32" d="M125.647 62.9641L168.256 88.5587L189.304 76.3272L151.695 54.4424" fill="url(#paint3_linear_555_442)"/>
<path d="M178.303 57.8765L132.24 29.7923C131.994 29.6497 131.714 29.5758 131.429 29.5782C131.144 29.5806 130.865 29.6592 130.621 29.8058C130.377 29.9524 130.177 30.1618 130.041 30.4121C129.905 30.6623 129.839 30.9444 129.849 31.229V47.2293C129.845 47.5189 129.916 47.8048 130.055 48.0585C130.195 48.3122 130.399 48.525 130.646 48.6758L176.709 76.1598C176.95 76.2979 177.223 76.3705 177.501 76.3705C177.779 76.3705 178.052 76.2979 178.293 76.1598C178.532 76.0174 178.73 75.8158 178.868 75.5744C179.005 75.333 179.079 75.0601 179.08 74.7821L179.316 59.8642C179.336 59.4732 179.253 59.0836 179.076 58.7348C178.898 58.3859 178.631 58.0899 178.303 57.8765Z" fill="#E2AC00"/>
<path d="M167.282 66.1031C168.935 68.4155 171.838 69.0551 173.757 67.5594C175.675 66.0637 175.912 62.9542 174.258 60.6712C172.605 58.3883 169.702 57.7191 167.774 59.2247C165.845 60.7302 165.629 63.8004 167.282 66.1031Z" fill="white"/>
<path d="M162.765 55.0224L143.97 43.706C143.809 43.6385 143.629 43.6317 143.464 43.6869C143.299 43.742 143.159 43.8555 143.071 44.006C142.983 44.1565 142.953 44.3338 142.986 44.505C143.019 44.6761 143.114 44.8293 143.251 44.9361L162.037 56.2426C162.196 56.308 162.373 56.3141 162.537 56.2597C162.7 56.2053 162.838 56.0941 162.927 55.9463C163.015 55.7984 163.047 55.6238 163.017 55.4543C162.988 55.2847 162.898 55.1314 162.765 55.0224Z" fill="#F2F2F2"/>
<path d="M161.987 59.6173L136.088 44.0303C135.93 43.9744 135.757 43.9763 135.6 44.0358C135.443 44.0953 135.313 44.2084 135.232 44.355C135.15 44.5001 135.122 44.6695 135.152 44.8332C135.183 44.997 135.27 45.1447 135.399 45.2505L161.269 60.8474C161.43 60.9231 161.613 60.9358 161.782 60.883C161.952 60.8301 162.095 60.7156 162.184 60.562C162.286 60.4048 162.323 60.2138 162.286 60.0299C162.249 59.8461 162.142 59.6839 161.987 59.578V59.6173Z" fill="#F2F2F2"/>
<path d="M169.112 60.976L123.069 32.9017C122.822 32.7591 122.542 32.6852 122.258 32.6876C121.973 32.6899 121.694 32.7685 121.45 32.9152C121.206 33.0618 121.005 33.2712 120.87 33.5214C120.734 33.7717 120.668 34.0538 120.678 34.3383V50.3288C120.673 50.6185 120.744 50.9043 120.884 51.158C121.024 51.4118 121.227 51.6246 121.475 51.7754L167.537 79.22C167.781 79.3632 168.058 79.4383 168.341 79.4373C168.623 79.4363 168.901 79.3593 169.143 79.2144C169.386 79.0695 169.585 78.862 169.719 78.6136C169.854 78.3653 169.92 78.0853 169.909 77.803L170.155 62.8949C170.167 62.5044 170.078 62.1175 169.895 61.7723C169.712 61.4271 169.442 61.1357 169.112 60.9268V60.976Z" fill="#F47B56"/>
<path d="M158.09 69.212C159.743 71.5146 162.646 72.1641 164.565 70.6585C166.484 69.153 166.72 66.0533 165.067 63.7703C163.414 61.4874 160.511 60.8182 158.582 62.3238C156.654 63.8294 156.437 66.8995 158.09 69.212Z" fill="white"/>
<path d="M153.565 58.122L134.77 46.8155C134.608 46.7287 134.42 46.7078 134.243 46.7571C134.067 46.8065 133.916 46.9222 133.824 47.08C133.731 47.2379 133.702 47.4256 133.745 47.6037C133.787 47.7819 133.897 47.9367 134.051 48.0357L152.836 59.352C152.997 59.4255 153.18 59.437 153.349 59.3843C153.517 59.3316 153.661 59.2185 153.752 59.0666C153.803 58.9892 153.839 58.9022 153.858 58.8108C153.876 58.7193 153.876 58.6252 153.857 58.5338C153.839 58.4424 153.803 58.3555 153.751 58.278C153.699 58.2006 153.632 58.1342 153.555 58.0826L153.565 58.122Z" fill="#F2F2F2"/>
<path d="M152.787 62.7468L126.897 47.1302C126.737 47.0545 126.554 47.0418 126.384 47.0946C126.215 47.1475 126.071 47.262 125.982 47.4156C125.88 47.5728 125.843 47.7638 125.88 47.9477C125.917 48.1315 126.024 48.2937 126.179 48.3996L152.049 63.9473C152.21 64.023 152.393 64.0357 152.562 63.9829C152.732 63.93 152.875 63.8155 152.964 63.6619C153.066 63.5047 153.103 63.3137 153.066 63.1298C153.029 62.946 152.922 62.7838 152.767 62.6779L152.787 62.7468Z" fill="#F2F2F2"/>
<path d="M157.559 62.8553L111.507 34.7908C111.261 34.6448 110.98 34.5681 110.694 34.5689C110.408 34.5696 110.127 34.6478 109.882 34.7951C109.637 34.9424 109.436 35.1534 109.301 35.4055C109.166 35.6577 109.102 35.9417 109.116 36.2274V52.2179C109.115 52.5067 109.188 52.7908 109.33 53.0425C109.471 53.2943 109.675 53.5052 109.922 53.6546L155.985 81.1878C156.229 81.3302 156.507 81.4046 156.79 81.4033C157.073 81.402 157.35 81.3251 157.593 81.1805C157.836 81.0359 158.036 80.829 158.172 80.5811C158.308 80.3332 158.375 80.0534 158.366 79.7708L158.602 64.8627C158.614 64.4735 158.525 64.0879 158.344 63.7431C158.163 63.3983 157.896 63.1061 157.569 62.8947L157.559 62.8553Z" fill="#68E1FD"/>
<path d="M157.559 62.8553L111.507 34.7908C111.261 34.6448 110.98 34.5681 110.694 34.5689C110.408 34.5696 110.127 34.6478 109.882 34.7951C109.637 34.9424 109.436 35.1534 109.301 35.4055C109.166 35.6577 109.102 35.9417 109.116 36.2274V52.2179C109.115 52.5067 109.188 52.7908 109.33 53.0425C109.471 53.2943 109.675 53.5052 109.922 53.6546L155.985 81.1878C156.229 81.3302 156.507 81.4046 156.79 81.4033C157.073 81.402 157.35 81.3251 157.593 81.1805C157.836 81.0359 158.036 80.829 158.172 80.5811C158.308 80.3332 158.375 80.0534 158.366 79.7708L158.602 64.8627C158.614 64.4735 158.525 64.0879 158.344 63.7431C158.163 63.3983 157.896 63.1061 157.569 62.8947L157.559 62.8553Z" fill="#68E1FD"/>
<path d="M146.528 71.0919C148.181 73.4044 151.084 74.044 153.013 72.5385C154.942 71.0329 155.158 67.943 153.505 65.6503C151.852 63.3575 148.949 62.6982 147.02 64.2037C145.091 65.7093 144.895 68.7795 146.528 71.0919Z" fill="white"/>
<path d="M142.012 60.0021L123.217 48.7153C123.056 48.6478 122.876 48.6409 122.711 48.6961C122.546 48.7513 122.406 48.8647 122.318 49.0153C122.23 49.1658 122.2 49.3431 122.233 49.5142C122.267 49.6853 122.361 49.8386 122.499 49.9453L141.284 61.2518C141.444 61.33 141.628 61.3439 141.798 61.2909C141.968 61.2378 142.111 61.1218 142.199 60.9665C142.251 60.889 142.287 60.802 142.305 60.7106C142.323 60.6191 142.323 60.525 142.305 60.4336C142.286 60.3422 142.25 60.2553 142.198 60.1779C142.146 60.1004 142.08 60.034 142.002 59.9824L142.012 60.0021Z" fill="#F2F2F2"/>
<path d="M141.224 64.607L115.335 49.02C115.174 48.9524 114.994 48.9456 114.829 49.0008C114.663 49.056 114.524 49.1694 114.436 49.3199C114.348 49.4705 114.318 49.6478 114.351 49.8189C114.384 49.99 114.478 50.1433 114.616 50.25L140.506 65.8371C140.668 65.9119 140.851 65.9241 141.021 65.8713C141.191 65.8185 141.336 65.7044 141.426 65.5512C141.517 65.398 141.547 65.2166 141.512 65.0422C141.477 64.8677 141.378 64.7126 141.234 64.607H141.224Z" fill="#F2F2F2"/>
<path d="M97.12 61.291C94.1442 63.852 91.8943 67.1506 90.5959 70.8558C88.3031 77.1831 93.9908 87.5253 93.9908 87.5253L102.906 80.4698" fill="#FF8F6F"/>
<path d="M96.1556 144.952L93.7349 143.624L94.3745 140.16C94.3745 140.16 97.976 140.505 98.3106 141.784" fill="#003B94"/>
<path d="M97.0415 144.904C97.5925 144.569 98.1534 144.274 98.7242 143.979C100.122 143.211 102.139 142.414 103.005 140.978C103.18 140.688 103.262 140.352 103.241 140.015C103.22 139.677 103.096 139.354 102.887 139.088C101.617 137.553 98.8521 140.072 97.4253 138.37C97.1497 138.035 97.0218 132.722 97.0218 132.722L91.6293 134.168C91.6293 134.168 90.7142 144.865 90.8126 145.524C90.911 146.183 92.7806 146.793 92.7806 146.793C93.3332 146.676 93.86 146.459 94.3354 146.154C94.9061 145.75 94.3354 140.732 95.1128 141.43C95.8902 142.129 96.146 144.884 96.146 144.884C96.4428 144.924 96.7432 144.931 97.0415 144.904Z" fill="#F47B56"/>
<path d="M106.459 150.128L104.038 148.81L104.668 145.356C104.668 145.356 108.269 145.7 108.604 146.97" fill="#003B94"/>
<path d="M107.364 150.07C107.915 149.725 108.486 149.43 109.047 149.135C110.444 148.367 112.461 147.58 113.327 146.183C113.502 145.891 113.584 145.554 113.563 145.215C113.542 144.876 113.418 144.551 113.209 144.284C111.94 142.749 109.175 145.268 107.758 143.575C107.472 143.241 107.345 137.917 107.345 137.917L101.952 139.373C101.952 139.373 101.027 150.109 101.135 150.739C101.244 151.369 103.103 151.998 103.103 151.998C103.656 151.887 104.183 151.673 104.658 151.369C105.219 150.955 104.658 145.937 105.426 146.645C106.193 147.354 106.469 150.089 106.469 150.089C106.767 150.121 107.068 150.115 107.364 150.07Z" fill="#F47B56"/>
<path d="M88.8841 115.363L87.2998 136.598C87.2998 136.598 89.8288 140.091 98.3209 138.153L98.3997 123.835" fill="#3E2928"/>
<path d="M98.6852 119.565C98.508 121.395 98.6852 141.568 98.6852 141.568C98.6852 141.568 101.037 145.966 111.261 141.568L111.113 124.426" fill="#3E2928"/>
<path d="M88.0874 122.38C88.7762 122.862 89.0222 120.412 89.7504 120.805C92.4014 122.343 95.2171 123.577 98.1442 124.485H98.2032C98.3483 124.426 98.5108 124.426 98.6559 124.485C98.7286 124.513 98.7949 124.555 98.8508 124.609C98.9066 124.663 98.9508 124.728 98.9806 124.8C100.786 125.334 102.623 125.754 104.481 126.06C106.873 126.444 108.841 124.682 111.291 124.554C111.291 115.177 111.291 88.4896 107.355 82.7921L95.5464 78.856C95.4873 79.84 89.8095 86.4133 89.9472 94.4332C89.927 101.254 89.5196 108.068 88.727 114.842C88.6778 115.275 88.0874 121.868 88.0874 122.38Z" fill="#3E2928"/>
<path d="M108.427 71.9971L107.345 82.7526C107.345 82.7526 98.4885 83.1068 94.7295 80.4893V71.3477" fill="#FF8F6F"/>
<path d="M119.645 64.9116L118.739 66.1416C119.223 65.1443 119.647 64.1191 120.009 63.0715C120.265 62.363 119.113 62.0874 118.867 62.7861L118.73 63.16C118.838 62.7763 118.946 62.3925 119.044 62.0087C119.082 61.856 119.058 61.6946 118.977 61.5599C118.896 61.4252 118.764 61.3282 118.611 61.2904C118.459 61.2525 118.297 61.2769 118.163 61.3581C118.028 61.4393 117.931 61.5707 117.893 61.7233C117.649 62.723 117.35 63.7085 116.998 64.6754C117.193 63.8192 117.334 62.9515 117.421 62.0776C117.5 61.3297 116.309 61.3593 116.24 62.0776C116.142 63.0743 115.965 64.0615 115.709 65.0297C115.706 64.6998 115.677 64.3707 115.62 64.0457C115.61 63.9608 115.583 63.8791 115.539 63.806C115.494 63.733 115.435 63.6704 115.364 63.6225C115.364 63.4946 115.295 63.3667 115.256 63.2289C115.208 63.0977 115.116 62.987 114.996 62.9154C114.876 62.8437 114.735 62.8155 114.597 62.8353C114.459 62.8561 114.333 62.9248 114.242 63.0292C114.15 63.1336 114.098 63.267 114.095 63.406L114.016 67.8342C113.805 68.2959 113.526 68.7237 113.189 69.1036C113.76 69.4927 114.309 69.9132 114.833 70.3631C115.306 70.7572 115.756 71.1778 116.181 71.6227C116.555 71.1504 116.919 70.6387 117.273 70.186L117.391 70.0581C118.441 68.4902 119.53 66.9551 120.658 65.4528C121.121 64.8919 120.088 64.3113 119.645 64.9116Z" fill="#FFB5A9"/>
<path d="M102.847 62.186C102.847 62.186 107.01 63.3078 108.751 65.9844C109.807 67.8388 110.738 69.762 111.536 71.741L114.616 66.9586C114.616 66.9586 118.355 68.1099 119.832 69.9107C119.832 69.9107 115.403 79.5935 111.536 80.4201C107.669 81.2467 103.575 74.7423 103.575 74.7423C103.575 74.7423 102.729 77.4582 102.896 74.5553" fill="#FF8F6F"/>
<path d="M105.484 72.5384C104.278 71.5496 103.366 70.2496 102.847 68.7794C102.355 67.077 102.975 65.5813 103.555 63.997C104.193 62.4299 104.562 60.7666 104.648 59.0769C104.644 57.4336 104.559 55.7915 104.392 54.1567C104.382 54.0849 104.382 54.0121 104.392 53.9402C103.841 52.0706 102.699 50.4863 100.456 50.2993C94.6401 49.8073 94.3055 56.2035 94.3547 58.8702C94.4039 61.5369 94.6696 63.259 92.7409 64.3513C90.8122 65.4435 89.4149 68.2874 91.2648 70.6491C93.1148 73.0107 91.4518 72.1153 90.2218 74.1817C88.9917 76.2482 89.3165 78.8165 91.8356 79.7513C94.3547 80.6862 106.065 78.9346 107.137 77.8522C107.521 77.4162 107.718 76.8477 107.688 76.2679C107.425 74.8139 106.646 73.5037 105.494 72.5778L105.484 72.5384Z" fill="#007F68"/>
<path d="M111.201 19.4002C112.185 20.8208 112.754 22.4868 112.845 24.2121C112.96 25.0003 112.77 25.8027 112.313 26.4557C112.118 26.6691 111.858 26.8119 111.573 26.8617C111.288 26.9115 110.995 26.8657 110.739 26.7312C110.42 26.6019 110.132 26.4076 109.893 26.1605C109.678 25.9602 109.495 25.7278 109.352 25.4716L109.194 25.1764C109.154 25.2545 109.104 25.3272 109.046 25.3929C108.893 25.5069 108.714 25.5813 108.525 25.6094C108.194 25.678 107.849 25.6401 107.541 25.5012C106.843 25.1954 106.26 24.6749 105.878 24.0153C105.425 23.2944 105.173 22.4653 105.15 21.6142C105.101 21.2737 105.129 20.9267 105.231 20.5982C105.333 20.2698 105.507 19.9681 105.74 19.7151C105.941 19.5231 106.195 19.3967 106.469 19.3528C106.744 19.3088 107.025 19.3494 107.275 19.4691C107.526 19.5767 107.758 19.7228 107.964 19.902C108.138 20.0474 108.29 20.2163 108.417 20.4039L108.535 20.6105V20.0398L109.804 20.5318L109.922 24.094C109.931 24.351 110.013 24.6001 110.158 24.8123C110.279 25.0144 110.457 25.1755 110.67 25.2748C111.28 25.511 111.566 24.9796 111.526 23.6905C111.459 22.4051 111.033 21.1642 110.296 20.1087C109.64 19.0328 108.658 18.1949 107.492 17.7175C107.07 17.5056 106.595 17.4242 106.127 17.4838C105.659 17.5434 105.219 17.7413 104.864 18.052C104.491 18.4396 104.208 18.9059 104.038 19.4167C103.868 19.9275 103.814 20.4698 103.88 21.0041C103.956 22.3579 104.395 23.6663 105.15 24.7927C105.749 25.913 106.699 26.8052 107.856 27.3315C108.255 27.4969 108.683 27.5806 109.115 27.5775C109.4 27.595 109.684 27.5408 109.942 27.42L110.198 27.2823L110.955 28.7091L110.837 28.7977C110.717 28.8647 110.592 28.9239 110.463 28.9748C110.259 29.0622 110.044 29.1218 109.824 29.1519C109.546 29.1916 109.265 29.1916 108.987 29.1519C108.62 29.1055 108.259 29.0129 107.915 28.8764C106.94 28.4594 106.074 27.8229 105.386 27.0166C104.563 26.1137 103.898 25.0792 103.418 23.9562C102.939 22.8816 102.665 21.7268 102.611 20.5515C102.541 19.5651 102.741 18.5783 103.191 17.6978C103.565 16.9592 104.21 16.3946 104.992 16.1233C105.808 15.8497 106.698 15.8954 107.482 16.2513C109.017 16.8971 110.314 18.0045 111.192 19.4199L111.201 19.4002ZM108.417 23.907C108.523 23.7686 108.601 23.6102 108.645 23.4411C108.689 23.272 108.698 23.0958 108.673 22.923C108.659 22.5111 108.544 22.1089 108.338 21.752C108.163 21.4455 107.894 21.2039 107.57 21.0632C107.447 20.9958 107.305 20.969 107.166 20.9867C107.026 21.0044 106.896 21.0656 106.793 21.1616C106.683 21.2844 106.601 21.4301 106.553 21.5883C106.505 21.7465 106.493 21.9133 106.518 22.0767C106.529 22.4947 106.652 22.9021 106.872 23.2576C107.054 23.5792 107.338 23.8317 107.679 23.9759C107.798 24.0373 107.933 24.0599 108.065 24.0405C108.197 24.0211 108.32 23.9606 108.417 23.8677" fill="#F47B56"/>
<path d="M185.939 87.928C186.925 89.3472 187.494 91.014 187.582 92.7399C187.696 93.5281 187.506 94.3301 187.051 94.9835C186.854 95.1953 186.594 95.3362 186.309 95.3843C186.024 95.4323 185.731 95.3848 185.476 95.2492C185.158 95.1234 184.87 94.9323 184.63 94.6883C184.417 94.4825 184.235 94.2473 184.089 93.9896L183.931 93.6944C183.891 93.7725 183.842 93.8452 183.784 93.9109C183.631 94.0281 183.452 94.1058 183.262 94.1372C182.947 94.1954 182.621 94.1577 182.327 94.029C181.63 93.7213 181.05 93.1968 180.674 92.5333C180.213 91.8157 179.958 90.9851 179.936 90.1322C179.888 89.7925 179.915 89.4462 180.015 89.1181C180.116 88.7899 180.287 88.4878 180.517 88.2331C180.716 88.0386 180.97 87.9105 181.245 87.8665C181.52 87.8224 181.802 87.8646 182.052 87.9871C182.308 88.085 182.542 88.2321 182.741 88.42C182.915 88.5679 183.07 88.7364 183.203 88.9219L183.321 89.1285V88.5676L184.581 89.0498L184.709 92.612C184.719 92.8642 184.798 93.1089 184.935 93.3205C185.056 93.5257 185.238 93.6875 185.457 93.783C186.096 94.029 186.352 93.4976 186.313 92.1987C186.253 90.9164 185.83 89.6776 185.093 88.6267C184.434 87.5572 183.456 86.721 182.298 86.2355C181.876 86.0214 181.4 85.938 180.93 85.9958C180.46 86.0537 180.018 86.2502 179.661 86.5602C179.287 86.9478 179.005 87.4141 178.834 87.9248C178.664 88.4356 178.61 88.978 178.677 89.5123C178.748 90.8669 179.187 92.1765 179.946 93.3008C180.569 94.392 181.529 95.2518 182.682 95.7511C183.08 95.9197 183.509 96.0066 183.941 96.0069C184.225 96.0228 184.508 95.9722 184.768 95.8593L185.024 95.7117L185.781 97.1385L185.663 97.2271C185.543 97.2941 185.418 97.3533 185.289 97.4042C185.085 97.4917 184.87 97.5512 184.65 97.5814C184.369 97.6207 184.084 97.6207 183.803 97.5814C183.439 97.5337 183.082 97.4412 182.741 97.3058C181.767 96.8866 180.902 96.2505 180.212 95.446C179.387 94.5413 178.721 93.5032 178.244 92.3758C177.76 91.3062 177.486 90.1537 177.437 88.9809C177.366 87.9977 177.567 87.0138 178.017 86.1371C178.392 85.3954 179.037 84.8251 179.818 84.5429C180.639 84.2792 181.528 84.3246 182.318 84.6709C183.831 85.3588 185.095 86.496 185.939 87.928ZM183.144 92.425C183.256 92.2892 183.337 92.1312 183.383 91.9616C183.429 91.7919 183.438 91.6145 183.41 91.441C183.399 91.0287 183.284 90.6258 183.075 90.27C182.908 89.9592 182.641 89.7133 182.318 89.5713C182.192 89.506 182.049 89.4804 181.909 89.498C181.768 89.5155 181.636 89.5755 181.53 89.6697C181.421 89.7939 181.34 89.9394 181.291 90.0971C181.242 90.2547 181.226 90.4209 181.245 90.5849C181.266 90.9996 181.392 91.4022 181.609 91.7559C181.791 92.0803 182.075 92.336 182.416 92.4841C182.533 92.5447 182.667 92.5669 182.798 92.5474C182.928 92.528 183.05 92.468 183.144 92.3758" fill="#F47B56"/>
<path opacity="0.25" d="M59.7963 114.911L38.374 102.719L16.9517 114.931C16.9517 114.931 28.8683 122.38 39.5352 128.628C46.3151 123.846 52.3275 118.375 59.7963 114.911Z" fill="url(#paint4_linear_555_442)"/>
<path fill-rule="evenodd" clip-rule="evenodd" d="M21.1035 80.6662V107.176L41.7485 118.994L65.07 105.208V78.708" fill="black"/>
<path fill-rule="evenodd" clip-rule="evenodd" d="M21.1035 80.6662V107.176L41.7485 118.994L65.07 105.208V78.708" fill="#FF9271"/>
<path d="M41.7485 92.4943V118.994L65.0701 105.208V78.708L41.7485 92.4943Z" fill="#DF5C34"/>
<path d="M21.1035 80.6662L45.0646 67.0078L65.07 78.7079L41.7485 92.4942L21.1035 80.6662Z" fill="#F47B56"/>
<path d="M42.3 73.0992C44.7278 72.9311 47.1529 73.4639 49.2866 74.6343C50.5167 75.3526 51.1858 76.1005 51.2547 76.8877C51.2822 77.316 51.1758 77.7422 50.9501 78.1072C50.7243 78.4723 50.3906 78.7579 49.9951 78.9246C49.5433 79.2009 49.0473 79.3972 48.5289 79.5052C48.1 79.605 47.6604 79.6513 47.2202 79.643H46.7478C46.7877 79.7515 46.8173 79.8635 46.8364 79.9776C46.816 80.2476 46.728 80.5082 46.5805 80.7353C46.3247 81.1452 45.9692 81.4837 45.5473 81.7193C44.5501 82.3083 43.4087 82.6082 42.2508 82.5852C41.0713 82.6061 39.9083 82.3069 38.8854 81.7193C38.4765 81.5383 38.1213 81.2547 37.8541 80.8961C37.5869 80.5376 37.4167 80.1161 37.3602 79.6725C37.3657 79.2596 37.4866 78.8566 37.7092 78.5088C37.9318 78.161 38.2471 77.8824 38.6197 77.7044C38.9698 77.5001 39.3477 77.3476 39.7415 77.2518C40.0619 77.1578 40.3921 77.1017 40.7255 77.0845H41.07L40.4402 76.7007L42.2114 75.5986L46.3148 78.0193C46.6293 78.189 46.9809 78.2778 47.3382 78.2778C47.6955 78.2778 48.0472 78.189 48.3616 78.0193C49.2276 77.4683 48.9127 76.7598 47.4268 75.8742C45.8404 75.002 44.0374 74.6024 42.2311 74.7228C40.3244 74.7443 38.4585 75.2779 36.8288 76.2678C35.3429 77.2518 34.6049 78.3047 34.6147 79.5938C34.6246 80.8829 35.4019 81.985 36.937 82.8804C38.613 83.7976 40.5099 84.2335 42.4181 84.14C44.3236 84.1723 46.2006 83.6749 47.8401 82.7033C48.4058 82.3664 48.9141 81.9412 49.3457 81.4438C49.6309 81.1361 49.8458 80.7701 49.9754 80.3712L50.064 79.9677L52.406 80.1055V80.3121C52.3607 80.5053 52.3048 80.6958 52.2387 80.8829C52.1303 81.1767 51.9953 81.4599 51.8353 81.7291C51.5918 82.0856 51.3114 82.4154 50.9988 82.7132C50.5859 83.1126 50.1306 83.4657 49.6409 83.7661C48.2333 84.6077 46.6761 85.1691 45.0553 85.4192C43.2861 85.7242 41.4805 85.754 39.7022 85.5078C38.0863 85.319 36.5241 84.8106 35.1067 84.0121C33.9649 83.4011 33.0505 82.4384 32.4991 81.2666C32.2749 80.7564 32.1592 80.2052 32.1592 79.6479C32.1592 79.0906 32.2749 78.5394 32.4991 78.0292C33.0391 76.8338 33.9455 75.8412 35.0871 75.1952C37.2583 73.8574 39.7501 73.1299 42.3 73.0893V73.0992ZM44.5928 79.6233C44.5541 79.4066 44.4618 79.203 44.3243 79.0312C44.1868 78.8593 44.0085 78.7246 43.8056 78.6393C43.307 78.361 42.7429 78.2216 42.1721 78.2358C41.6361 78.2152 41.1059 78.3521 40.6468 78.6294C40.4609 78.7189 40.3035 78.8583 40.1923 79.0321C40.0811 79.2059 40.0204 79.4072 40.017 79.6135C40.0448 79.8272 40.1273 80.0301 40.2566 80.2026C40.3859 80.375 40.5576 80.511 40.7551 80.5975C41.2654 80.8841 41.8427 81.0301 42.4279 81.0206C42.9912 81.0289 43.546 80.8826 44.0319 80.5975C44.2209 80.5158 44.3795 80.377 44.4854 80.2005C44.5913 80.0239 44.6392 79.8186 44.6223 79.6135" fill="#3E2928"/>
<defs>
<linearGradient id="paint0_linear_555_442" x1="135.365" y1="100.208" x2="128.709" y2="109.568" gradientUnits="userSpaceOnUse">
<stop stop-color="#7F3500"/>
<stop offset="1" stop-color="#231F20" stop-opacity="0"/>
</linearGradient>
<linearGradient id="paint1_linear_555_442" x1="107.543" y1="142.25" x2="93.2682" y2="158.072" gradientUnits="userSpaceOnUse">
<stop offset="0.03" stop-color="#7F3500"/>
<stop offset="1" stop-color="#231F20" stop-opacity="0"/>
</linearGradient>
<linearGradient id="paint2_linear_555_442" x1="76.0585" y1="75.2735" x2="65.2018" y2="87.031" gradientUnits="userSpaceOnUse">
<stop stop-color="#843C09" stop-opacity="0.85"/>
<stop offset="1" stop-color="#231F20" stop-opacity="0"/>
</linearGradient>
<linearGradient id="paint3_linear_555_442" x1="177.307" y1="74.7394" x2="170.872" y2="69.5941" gradientUnits="userSpaceOnUse">
<stop stop-color="white" stop-opacity="0"/>
<stop offset="0.99" stop-color="#DC841E"/>
</linearGradient>
<linearGradient id="paint4_linear_555_442" x1="52.621" y1="109.124" x2="38.1613" y2="125.217" gradientUnits="userSpaceOnUse">
<stop offset="0.03" stop-color="#7F3500"/>
<stop offset="1" stop-color="#231F20" stop-opacity="0"/>
</linearGradient>
<clipPath id="clip0_555_442">
<rect width="236" height="102" fill="white" transform="translate(0.5 106.5)"/>
</clipPath>
</defs>
</svg>
