<svg width="238" height="180" viewBox="0 0 238 180" fill="none" xmlns="http://www.w3.org/2000/svg">
<g clip-path="url(#clip0_558_499)">
<path d="M115.495 178.12L5.18497 112.94C1.66497 110.94 -1.34503 107.73 2.07497 105.61L112.795 41.8201C114.445 40.8201 116.975 40.1201 118.665 41.1001L234.445 108.29C237.965 110.29 238.595 116.01 235.095 118.07L130.035 178.07C127.825 179.341 125.321 180.014 122.772 180.023C120.222 180.032 117.714 179.376 115.495 178.12Z" fill="#5B36A0"/>
<path d="M115.495 175.11L5.18497 109.93C1.66497 107.93 -1.34503 104.72 2.07497 102.6L112.795 38.8104C114.445 37.8104 116.975 37.1104 118.665 38.0904L234.445 105.28C237.965 107.28 238.595 113 235.095 115.06L130.035 175.06C127.825 176.332 125.321 177.005 122.772 177.013C120.222 177.022 117.714 176.366 115.495 175.11Z" fill="#6862E6"/>
<path opacity="0.25" d="M124.575 89.1201L102.825 101.53C102.825 101.53 136.355 121.99 143.215 124.87L155.755 106.87" fill="url(#paint0_linear_558_499)"/>
<path opacity="0.25" d="M117.075 148.69L95.3052 136.3L73.5752 148.72C73.5752 148.72 84.9152 155.64 95.7552 161.99C102.575 157.12 109.475 152.2 117.075 148.69Z" fill="url(#paint1_linear_558_499)"/>
<path opacity="0.46" d="M70.165 72.1602L56.355 80.0402C56.355 80.0402 57.525 87.2602 64.355 90.1502L82.465 78.5702" fill="url(#paint2_linear_558_499)"/>
<path d="M76.9247 80.0403C81.5253 80.0403 85.2547 77.4167 85.2547 74.1803C85.2547 70.9439 81.5253 68.3203 76.9247 68.3203C72.3242 68.3203 68.5947 70.9439 68.5947 74.1803C68.5947 77.4167 72.3242 80.0403 76.9247 80.0403Z" fill="#68E1FD"/>
<path d="M76.9148 73.2704C80.3611 73.2704 83.1548 72.1287 83.1548 70.7204C83.1548 69.3121 80.3611 68.1704 76.9148 68.1704C73.4685 68.1704 70.6748 69.3121 70.6748 70.7204C70.6748 72.1287 73.4685 73.2704 76.9148 73.2704Z" fill="#974C26"/>
<path d="M76.6948 66.4305C76.6948 65.2805 76.6948 64.1305 76.5648 62.9805L76.4748 62.0805L76.4148 61.5005C76.4023 61.2983 76.3721 61.0976 76.3248 60.9005L76.2048 60.2005C75.5234 56.2923 74.0054 52.5775 71.7548 49.3105C70.9072 51.3262 70.4818 53.4941 70.5048 55.6805C70.5048 56.3305 70.5648 56.9705 70.6148 57.5805V57.9505C70.6148 58.2605 70.7248 58.6005 70.7848 58.8805C71.0417 60.0513 71.3757 61.2039 71.7848 62.3305C72.153 63.3654 72.6045 64.3687 73.1348 65.3305C73.7048 66.4205 74.3148 67.4805 74.9848 68.5205C75.4948 69.3305 75.9848 70.0505 76.4748 70.7405C76.6225 69.3086 76.6959 67.87 76.6948 66.4305ZM73.4148 53.5205C73.4447 53.372 73.4447 53.2191 73.4148 53.0705C73.5748 53.2305 73.7348 53.4005 73.8848 53.5705C73.7296 53.5406 73.57 53.5406 73.4148 53.5705V53.5205Z" fill="#999A1C"/>
<path d="M78.835 67.3505C79.4731 66.3835 80.0574 65.382 80.585 64.3505C80.735 64.0805 80.865 63.8205 81.005 63.5505L81.265 63.0205L81.515 62.4705C81.605 62.2505 81.705 62.0305 81.795 61.8205C83.335 58.1635 84.065 54.2164 83.935 50.2505C82.1271 51.4862 80.5949 53.0831 79.435 54.9405C79.095 55.4805 78.785 56.0305 78.495 56.5905L78.365 56.8305V56.9305L78.005 57.8005C77.5919 58.9225 77.2578 60.0719 77.005 61.2405C76.754 62.3159 76.5868 63.4092 76.505 64.5105C76.395 65.7305 76.335 66.9505 76.335 68.1805C76.335 69.1805 76.335 70.0105 76.395 70.8505C77.195 69.7305 78.055 68.5605 78.835 67.3505ZM83.075 54.6905C83.1782 54.5759 83.2534 54.439 83.295 54.2905C83.295 54.5205 83.385 54.7305 83.415 54.9405C83.3173 54.8377 83.2022 54.7531 83.075 54.6905Z" fill="#999A1C"/>
<path d="M78.785 70.2204C79.435 69.8904 80.075 69.5504 80.715 69.1704L81.205 68.8804L81.515 68.6804L81.825 68.4604L82.185 68.2004C84.1948 66.7232 85.8627 64.8302 87.075 62.6504C85.7023 62.741 84.3621 63.1084 83.135 63.7304C82.785 63.9104 82.445 64.1104 82.135 64.3204L81.985 64.4104L81.505 64.7704C80.9132 65.2371 80.3552 65.745 79.835 66.2904C79.3571 66.7913 78.9159 67.326 78.515 67.8904C78.055 68.5404 77.635 69.1804 77.225 69.8204C76.815 70.4604 76.645 70.8204 76.395 71.2904C77.145 70.9804 77.975 70.6204 78.785 70.2204ZM85.165 64.7504C85.2564 64.7198 85.3412 64.6723 85.415 64.6104C85.415 64.7504 85.315 64.8804 85.255 65.0104C85.2448 64.9212 85.214 64.8356 85.165 64.7604V64.7504Z" fill="#999A1C"/>
<path d="M76.6948 66.4305C76.6948 65.2805 76.6948 64.1305 76.5648 62.9805L76.4748 62.0805L76.4148 61.5005C76.4023 61.2983 76.3721 61.0976 76.3248 60.9005L76.2048 60.2005C75.5234 56.2923 74.0054 52.5775 71.7548 49.3105C70.9072 51.3262 70.4818 53.4941 70.5048 55.6805C70.5048 56.3305 70.5648 56.9705 70.6148 57.5805V57.9505C70.6148 58.2605 70.7248 58.6005 70.7848 58.8805C71.0417 60.0513 71.3757 61.2039 71.7848 62.3305C72.153 63.3654 72.6045 64.3687 73.1348 65.3305C73.7048 66.4205 74.3148 67.4805 74.9848 68.5205C75.4948 69.3305 75.9848 70.0505 76.4748 70.7405C76.6225 69.3086 76.6959 67.87 76.6948 66.4305ZM73.4148 53.5205C73.4447 53.372 73.4447 53.2191 73.4148 53.0705C73.5748 53.2305 73.7348 53.4005 73.8848 53.5705C73.7296 53.5406 73.57 53.5406 73.4148 53.5705V53.5205Z" fill="#999A1C"/>
<path d="M78.835 67.3505C79.4731 66.3835 80.0574 65.382 80.585 64.3505C80.735 64.0805 80.865 63.8205 81.005 63.5505L81.265 63.0205L81.515 62.4705C81.605 62.2505 81.705 62.0305 81.795 61.8205C83.335 58.1635 84.065 54.2164 83.935 50.2505C82.1271 51.4862 80.5949 53.0831 79.435 54.9405C79.095 55.4805 78.785 56.0305 78.495 56.5905L78.365 56.8305V56.9305L78.005 57.8005C77.5919 58.9225 77.2578 60.0719 77.005 61.2405C76.754 62.3159 76.5868 63.4092 76.505 64.5105C76.395 65.7305 76.335 66.9505 76.335 68.1805C76.335 69.1805 76.335 70.0105 76.395 70.8505C77.195 69.7305 78.055 68.5605 78.835 67.3505ZM83.075 54.6905C83.1782 54.5759 83.2534 54.439 83.295 54.2905C83.295 54.5205 83.385 54.7305 83.415 54.9405C83.3173 54.8377 83.2022 54.7531 83.075 54.6905Z" fill="#999A1C"/>
<path d="M78.785 70.2204C79.435 69.8904 80.075 69.5504 80.715 69.1704L81.205 68.8804L81.515 68.6804L81.825 68.4604L82.185 68.2004C84.1948 66.7232 85.8627 64.8302 87.075 62.6504C85.7023 62.741 84.3621 63.1084 83.135 63.7304C82.785 63.9104 82.445 64.1104 82.135 64.3204L81.985 64.4104L81.505 64.7704C80.9132 65.2371 80.3552 65.745 79.835 66.2904C79.3571 66.7913 78.9159 67.326 78.515 67.8904C78.055 68.5404 77.635 69.1804 77.225 69.8204C76.815 70.4604 76.645 70.8204 76.395 71.2904C77.145 70.9804 77.975 70.6204 78.785 70.2204ZM85.165 64.7504C85.2564 64.7198 85.3412 64.6723 85.415 64.6104C85.415 64.7504 85.315 64.8804 85.255 65.0104C85.2448 64.9212 85.214 64.8356 85.165 64.7604V64.7504Z" fill="#999A1C"/>
<path d="M133.235 84.2705L121.235 90.0605C120.775 90.2694 120.381 90.6012 120.097 91.0193C119.813 91.4374 119.65 91.9257 119.625 92.4305C119.606 92.9336 119.723 93.4325 119.964 93.8744C120.205 94.3163 120.562 94.6847 120.995 94.9405L149.575 111.611C150.193 111.971 150.926 112.079 151.621 111.911C152.316 111.743 152.92 111.313 153.305 110.711L160.245 99.9205" fill="#A1482D"/>
<path d="M198.765 56.3503L102.695 1.01033C102.037 0.631536 101.291 0.43247 100.531 0.433107C99.7721 0.433744 99.0263 0.634063 98.3688 1.01397C97.7113 1.39387 97.1653 1.93999 96.7855 2.59755C96.4057 3.25511 96.2056 4.00098 96.2051 4.76033V62.3403C96.2089 62.9678 96.3771 63.5832 96.693 64.1254C97.0088 64.6676 97.4612 65.1175 98.0051 65.4303L200.425 124.53C200.777 124.737 201.176 124.847 201.584 124.849C201.992 124.85 202.393 124.744 202.746 124.541C203.1 124.338 203.393 124.045 203.597 123.692C203.8 123.339 203.907 122.938 203.905 122.53V65.2103C203.905 63.4116 203.429 61.645 202.527 60.0891C201.624 58.5333 200.326 57.2435 198.765 56.3503Z" fill="#F47B56"/>
<path d="M102.705 5.36052L195.875 58.9505C196.869 59.5242 197.694 60.3492 198.268 61.3427C198.842 62.3362 199.144 63.4632 199.145 64.6105V107.771C199.136 108.18 199.022 108.579 198.812 108.931C198.602 109.282 198.305 109.573 197.949 109.775C197.593 109.976 197.191 110.082 196.781 110.081C196.372 110.081 195.97 109.973 195.615 109.771L100.575 55.3305C100.221 55.1287 99.9264 54.838 99.7194 54.4872C99.5125 54.1365 99.4007 53.7377 99.395 53.3305V7.26052C99.3979 6.87771 99.5007 6.50227 99.6931 6.17132C99.8855 5.84037 100.161 5.56536 100.492 5.37348C100.823 5.18159 101.199 5.07946 101.582 5.07719C101.965 5.07492 102.342 5.17258 102.675 5.36052H102.705Z" fill="white"/>
<path d="M141.907 86.7701C143.008 86.5581 143.704 85.3663 143.462 84.1081C143.22 82.8499 142.131 82.0018 141.03 82.2138C139.929 82.4258 139.233 83.6176 139.475 84.8758C139.718 86.134 140.806 86.9821 141.907 86.7701Z" fill="#AB643C"/>
<path opacity="0.32" d="M127.745 63.9105L171.045 89.9205L192.435 77.4905L154.215 55.2505" fill="url(#paint3_linear_558_499)"/>
<path d="M181.255 58.7405L134.445 30.2005C134.195 30.0557 133.91 29.9806 133.621 29.983C133.331 29.9854 133.048 30.0653 132.8 30.2143C132.552 30.3633 132.348 30.576 132.21 30.8304C132.072 31.0847 132.005 31.3714 132.015 31.6605V47.9205C132.01 48.2149 132.083 48.5054 132.225 48.7632C132.367 49.021 132.574 49.2373 132.825 49.3905L179.635 77.3205C179.88 77.4609 180.158 77.5347 180.44 77.5347C180.723 77.5347 181 77.4609 181.245 77.3205C181.488 77.1758 181.689 76.9709 181.829 76.7257C181.969 76.4804 182.044 76.203 182.045 75.9205L182.285 60.7605C182.306 60.3631 182.221 59.9673 182.04 59.6127C181.86 59.2582 181.589 58.9574 181.255 58.7405Z" fill="#E2AC00"/>
<path d="M170.055 67.1003C171.735 69.4503 174.685 70.1003 176.635 68.5803C178.585 67.0603 178.825 63.9003 177.145 61.5803C175.465 59.2603 172.515 58.5803 170.555 60.1103C168.595 61.6403 168.375 64.7603 170.055 67.1003Z" fill="white"/>
<path d="M165.465 55.8402L146.365 44.3402C146.202 44.2716 146.019 44.2647 145.851 44.3208C145.683 44.3768 145.541 44.4921 145.452 44.6451C145.362 44.798 145.332 44.9782 145.365 45.1521C145.399 45.326 145.495 45.4817 145.635 45.5902L164.725 57.0802C164.887 57.1467 165.067 57.1529 165.233 57.0977C165.399 57.0424 165.54 56.9294 165.629 56.7791C165.719 56.6289 165.752 56.4515 165.721 56.2791C165.691 56.1068 165.6 55.9511 165.465 55.8402Z" fill="#F2F2F2"/>
<path d="M164.675 60.5101L138.355 44.6701C138.194 44.6133 138.019 44.6153 137.86 44.6757C137.7 44.7361 137.568 44.8511 137.485 45.0001C137.402 45.1476 137.373 45.3196 137.404 45.4861C137.435 45.6525 137.524 45.8026 137.655 45.9101L163.945 61.7601C164.108 61.8371 164.294 61.85 164.466 61.7963C164.639 61.7426 164.784 61.6262 164.875 61.4701C164.979 61.3103 165.016 61.1163 164.979 60.9294C164.941 60.7426 164.832 60.5777 164.675 60.4701V60.5101Z" fill="#F2F2F2"/>
<path d="M171.915 61.8902L125.125 33.3602C124.874 33.2153 124.59 33.1402 124.3 33.1426C124.011 33.145 123.728 33.2249 123.48 33.3739C123.231 33.523 123.028 33.7357 122.89 33.99C122.752 34.2444 122.685 34.531 122.695 34.8202V51.0702C122.69 51.3646 122.762 51.655 122.904 51.9129C123.047 52.1707 123.254 52.387 123.505 52.5402L170.315 80.4302C170.562 80.5758 170.844 80.6521 171.132 80.6511C171.419 80.6501 171.7 80.5718 171.947 80.4246C172.193 80.2773 172.395 80.0664 172.532 79.8141C172.669 79.5617 172.736 79.2771 172.725 78.9902L172.975 63.8402C172.988 63.4434 172.896 63.0502 172.711 62.6994C172.525 62.3486 172.25 62.0524 171.915 61.8402V61.8902Z" fill="#F47B56"/>
<path d="M160.715 70.2602C162.395 72.6002 165.345 73.2602 167.295 71.7302C169.245 70.2002 169.485 67.0502 167.805 64.7302C166.125 62.4102 163.175 61.7302 161.215 63.2602C159.255 64.7902 159.035 67.9102 160.715 70.2602Z" fill="white"/>
<path d="M156.115 58.9904L137.015 47.5004C136.851 47.4123 136.659 47.391 136.48 47.4412C136.301 47.4913 136.148 47.6089 136.054 47.7693C135.959 47.9297 135.931 48.1204 135.974 48.3015C136.017 48.4826 136.128 48.6399 136.285 48.7404L155.375 60.2404C155.539 60.3151 155.724 60.3268 155.896 60.2732C156.067 60.2197 156.213 60.1048 156.305 59.9504C156.358 59.8717 156.394 59.7833 156.413 59.6904C156.431 59.5975 156.431 59.5018 156.413 59.4089C156.394 59.316 156.357 59.2277 156.305 59.149C156.252 59.0703 156.184 59.0029 156.105 58.9504L156.115 58.9904Z" fill="#F2F2F2"/>
<path d="M155.325 63.6903L129.015 47.8203C128.852 47.7433 128.666 47.7304 128.494 47.7841C128.321 47.8378 128.176 47.9542 128.085 48.1103C127.981 48.2701 127.944 48.4641 127.981 48.651C128.019 48.8378 128.128 49.0027 128.285 49.1103L154.575 64.9103C154.738 64.9872 154.924 65.0001 155.097 64.9464C155.269 64.8927 155.415 64.7763 155.505 64.6203C155.609 64.4605 155.646 64.2664 155.609 64.0796C155.571 63.8927 155.462 63.7279 155.305 63.6203L155.325 63.6903Z" fill="#F2F2F2"/>
<path d="M160.175 63.8002L113.375 35.2802C113.125 35.1318 112.84 35.0539 112.549 35.0547C112.258 35.0555 111.973 35.1349 111.724 35.2846C111.475 35.4343 111.271 35.6487 111.134 35.905C110.997 36.1612 110.931 36.4499 110.945 36.7402V52.9902C110.944 53.2836 111.019 53.5723 111.163 53.8282C111.307 54.084 111.514 54.2983 111.765 54.4502L158.575 82.4302C158.823 82.5749 159.106 82.6505 159.393 82.6492C159.68 82.6479 159.962 82.5698 160.209 82.4228C160.456 82.2759 160.659 82.0656 160.797 81.8136C160.936 81.5617 161.004 81.2774 160.995 80.9902L161.235 65.8402C161.247 65.4447 161.157 65.0528 160.973 64.7024C160.789 64.3521 160.517 64.0551 160.185 63.8402L160.175 63.8002Z" fill="#68E1FD"/>
<path d="M160.175 63.8002L113.375 35.2802C113.125 35.1318 112.84 35.0539 112.549 35.0547C112.258 35.0555 111.973 35.1349 111.724 35.2846C111.475 35.4343 111.271 35.6487 111.134 35.905C110.997 36.1612 110.931 36.4499 110.945 36.7402V52.9902C110.944 53.2836 111.019 53.5723 111.163 53.8282C111.307 54.084 111.514 54.2983 111.765 54.4502L158.575 82.4302C158.823 82.5749 159.106 82.6505 159.393 82.6492C159.68 82.6479 159.962 82.5698 160.209 82.4228C160.456 82.2759 160.659 82.0656 160.797 81.8136C160.936 81.5617 161.004 81.2774 160.995 80.9902L161.235 65.8402C161.247 65.4447 161.157 65.0528 160.973 64.7024C160.789 64.3521 160.517 64.0551 160.185 63.8402L160.175 63.8002Z" fill="#68E1FD"/>
<path d="M148.965 72.1705C150.645 74.5205 153.595 75.1705 155.555 73.6405C157.515 72.1105 157.735 68.9705 156.055 66.6405C154.375 64.3105 151.425 63.6405 149.465 65.1705C147.505 66.7005 147.305 69.8205 148.965 72.1705Z" fill="white"/>
<path d="M144.375 60.9006L125.275 49.4306C125.112 49.3619 124.929 49.355 124.761 49.4111C124.593 49.4672 124.451 49.5824 124.362 49.7354C124.273 49.8884 124.242 50.0686 124.276 50.2425C124.309 50.4164 124.405 50.5721 124.545 50.6806L143.635 62.1706C143.798 62.2499 143.985 62.2641 144.158 62.2102C144.331 62.1563 144.476 62.0384 144.565 61.8806C144.618 61.8018 144.654 61.7134 144.673 61.6205C144.691 61.5276 144.691 61.4319 144.673 61.339C144.654 61.2462 144.617 61.1578 144.565 61.0792C144.512 61.0005 144.444 60.933 144.365 60.8806L144.375 60.9006Z" fill="#F2F2F2"/>
<path d="M143.575 65.5801L117.265 49.7401C117.102 49.6715 116.919 49.6646 116.751 49.7207C116.583 49.7767 116.441 49.892 116.352 50.045C116.262 50.1979 116.232 50.3781 116.265 50.552C116.299 50.7259 116.395 50.8816 116.535 50.9901L142.845 66.8301C143.009 66.9062 143.196 66.9186 143.368 66.8649C143.541 66.8113 143.688 66.6953 143.78 66.5397C143.872 66.384 143.903 66.1996 143.867 66.0223C143.831 65.8451 143.73 65.6875 143.585 65.5801H143.575Z" fill="#F2F2F2"/>
<path d="M98.7548 62.2104C95.7307 64.813 93.4442 68.1651 92.1248 71.9305C89.7948 78.3605 95.5748 88.8705 95.5748 88.8705L104.635 81.7004" fill="#FF8F6F"/>
<path d="M97.7749 147.23L95.3149 145.88L95.9649 142.36C95.9649 142.36 99.6249 142.71 99.9649 144.01" fill="#003B94"/>
<path d="M98.6749 147.18C99.2349 146.84 99.8049 146.54 100.385 146.24C101.805 145.46 103.855 144.65 104.735 143.19C104.913 142.896 104.996 142.555 104.975 142.212C104.953 141.869 104.828 141.54 104.615 141.27C103.325 139.71 100.515 142.27 99.0649 140.54C98.7849 140.2 98.6549 134.8 98.6549 134.8L93.1749 136.27C93.1749 136.27 92.2449 147.14 92.3449 147.81C92.4449 148.48 94.3449 149.1 94.3449 149.1C94.9065 148.981 95.4418 148.76 95.9249 148.45C96.5049 148.04 95.9249 142.94 96.7149 143.65C97.5049 144.36 97.7649 147.16 97.7649 147.16C98.0666 147.201 98.3718 147.208 98.6749 147.18Z" fill="#F47B56"/>
<path d="M108.245 152.49L105.785 151.15L106.425 147.64C106.425 147.64 110.085 147.99 110.425 149.28" fill="#003B94"/>
<path d="M109.165 152.43C109.725 152.08 110.305 151.78 110.875 151.48C112.295 150.7 114.345 149.9 115.225 148.48C115.402 148.184 115.486 147.841 115.464 147.496C115.443 147.152 115.318 146.822 115.105 146.55C113.815 144.99 111.005 147.55 109.565 145.83C109.275 145.49 109.145 140.08 109.145 140.08L103.665 141.56C103.665 141.56 102.725 152.47 102.835 153.11C102.945 153.75 104.835 154.39 104.835 154.39C105.397 154.277 105.933 154.06 106.415 153.75C106.985 153.33 106.415 148.23 107.195 148.95C107.975 149.67 108.255 152.45 108.255 152.45C108.558 152.483 108.864 152.476 109.165 152.43Z" fill="#F47B56"/>
<path d="M90.3849 117.16L88.7749 138.74C88.7749 138.74 91.3449 142.29 99.9749 140.32L100.055 125.77" fill="#3E2928"/>
<path d="M100.345 121.43C100.165 123.29 100.345 143.79 100.345 143.79C100.345 143.79 102.735 148.26 113.125 143.79L112.975 126.37" fill="#3E2928"/>
<path d="M89.5752 124.291C90.2752 124.781 90.5252 122.291 91.2652 122.691C93.9592 124.253 96.8206 125.508 99.7952 126.431H99.8552C100.003 126.371 100.168 126.371 100.315 126.431C100.389 126.459 100.457 126.501 100.513 126.556C100.57 126.611 100.615 126.678 100.645 126.751C102.48 127.293 104.347 127.72 106.235 128.031C108.665 128.421 110.665 126.631 113.155 126.501C113.155 116.971 113.155 89.8505 109.155 84.0605L97.1552 80.0605C97.0952 81.0605 91.3252 87.7405 91.4652 95.8905C91.4446 102.822 91.0306 109.746 90.2252 116.631C90.1752 117.071 89.5752 123.771 89.5752 124.291Z" fill="#3E2928"/>
<path d="M110.245 73.0902L109.145 84.0202C109.145 84.0202 100.145 84.3802 96.3252 81.7202V72.4302" fill="#FF8F6F"/>
<path d="M121.645 65.8901L120.725 67.1401C121.216 66.1266 121.647 65.0847 122.015 64.0201C122.275 63.3001 121.105 63.0201 120.855 63.7301L120.715 64.1101C120.825 63.7201 120.935 63.3301 121.035 62.9401C121.073 62.7849 121.049 62.6209 120.966 62.484C120.884 62.3471 120.75 62.2485 120.595 62.2101C120.44 62.1716 120.276 62.1964 120.139 62.2789C120.002 62.3614 119.903 62.4949 119.865 62.6501C119.617 63.666 119.313 64.6675 118.955 65.6501C119.153 64.7799 119.297 63.8982 119.385 63.0101C119.465 62.2501 118.255 62.2801 118.185 63.0101C118.086 64.023 117.905 65.0262 117.645 66.0101C117.643 65.6748 117.613 65.3404 117.555 65.0101C117.545 64.9239 117.517 64.8408 117.472 64.7666C117.427 64.6923 117.367 64.6287 117.295 64.5801C117.295 64.4501 117.225 64.3201 117.185 64.1801C117.136 64.0468 117.043 63.9343 116.921 63.8615C116.799 63.7887 116.656 63.7599 116.515 63.7801C116.375 63.8012 116.248 63.871 116.154 63.9771C116.061 64.0832 116.008 64.2188 116.005 64.3601L115.925 68.8601C115.71 69.3293 115.427 69.7641 115.085 70.1501C115.665 70.5456 116.222 70.9729 116.755 71.4301C117.235 71.8306 117.693 72.2579 118.125 72.7101C118.505 72.2301 118.875 71.7101 119.235 71.2501L119.355 71.1201C120.422 69.5268 121.528 67.9668 122.675 66.4401C123.145 65.8701 122.095 65.2801 121.645 65.8901Z" fill="#FFB5A9"/>
<path d="M104.575 63.1201C104.575 63.1201 108.805 64.2601 110.575 66.9801C111.648 68.8646 112.594 70.819 113.405 72.8301L116.535 67.9701C116.535 67.9701 120.335 69.1401 121.835 70.9701C121.835 70.9701 117.335 80.8101 113.405 81.6501C109.475 82.4901 105.315 75.8801 105.315 75.8801C105.315 75.8801 104.455 78.6401 104.625 75.6901" fill="#FF8F6F"/>
<path d="M107.255 73.6405C106.029 72.6356 105.103 71.3146 104.575 69.8205C104.075 68.0905 104.705 66.5705 105.295 64.9605C105.943 63.3679 106.318 61.6776 106.405 59.9605C106.402 58.2905 106.315 56.6218 106.145 54.9605C106.135 54.8875 106.135 54.8135 106.145 54.7405C105.585 52.8405 104.425 51.2305 102.145 51.0405C96.2348 50.5405 95.8948 57.0405 95.9448 59.7505C95.9948 62.4605 96.2648 64.2105 94.3048 65.3205C92.3448 66.4305 90.9248 69.3205 92.8048 71.7205C94.6848 74.1205 92.9948 73.2105 91.7448 75.3105C90.4948 77.4105 90.8248 80.0205 93.3848 80.9705C95.9448 81.9205 107.845 80.1405 108.935 79.0405C109.324 78.5975 109.525 78.0197 109.495 77.4305C109.227 75.9529 108.435 74.6214 107.265 73.6805L107.255 73.6405Z" fill="#007F68"/>
<path d="M113.065 19.6403C114.064 21.084 114.642 22.777 114.735 24.5303C114.852 25.3313 114.658 26.1467 114.195 26.8103C113.996 27.0272 113.732 27.1723 113.442 27.2229C113.153 27.2736 112.855 27.2269 112.595 27.0903C112.271 26.959 111.978 26.7614 111.735 26.5103C111.516 26.3068 111.331 26.0706 111.185 25.8103L111.025 25.5103C110.984 25.5896 110.934 25.6635 110.875 25.7303C110.719 25.8461 110.537 25.9217 110.345 25.9503C110.008 26.02 109.658 25.9815 109.345 25.8403C108.635 25.5296 108.043 25.0006 107.655 24.3303C107.194 23.5977 106.939 22.7552 106.915 21.8903C106.866 21.5442 106.894 21.1916 106.998 20.8578C107.101 20.524 107.278 20.2175 107.515 19.9603C107.719 19.7652 107.977 19.6368 108.256 19.5921C108.534 19.5475 108.82 19.5887 109.075 19.7103C109.33 19.8197 109.566 19.9682 109.775 20.1503C109.951 20.298 110.106 20.4697 110.235 20.6603L110.355 20.8703V20.2903L111.645 20.7903L111.765 24.4103C111.774 24.6714 111.857 24.9246 112.005 25.1403C112.127 25.3456 112.308 25.5094 112.525 25.6103C113.145 25.8503 113.435 25.3103 113.395 24.0003C113.326 22.694 112.893 21.433 112.145 20.3603C111.478 19.2669 110.48 18.4154 109.295 17.9303C108.866 17.7149 108.383 17.6323 107.908 17.6928C107.432 17.7534 106.985 17.9545 106.625 18.2703C106.245 18.6642 105.958 19.138 105.785 19.6571C105.612 20.1761 105.557 20.7273 105.625 21.2703C105.702 22.646 106.148 23.9757 106.915 25.1203C107.523 26.2589 108.49 27.1655 109.665 27.7003C110.07 27.8685 110.506 27.9535 110.945 27.9503C111.234 27.9681 111.523 27.9131 111.785 27.7903L112.045 27.6503L112.815 29.1003L112.695 29.1903C112.572 29.2584 112.445 29.3185 112.315 29.3703C112.107 29.4592 111.889 29.5197 111.665 29.5503C111.383 29.5906 111.097 29.5906 110.815 29.5503C110.441 29.5032 110.075 29.4091 109.725 29.2703C108.734 28.8465 107.855 28.1997 107.155 27.3803C106.319 26.4627 105.643 25.4115 105.155 24.2703C104.668 23.1782 104.39 22.0047 104.335 20.8103C104.263 19.8079 104.467 18.8051 104.925 17.9103C105.304 17.1597 105.96 16.5859 106.755 16.3103C107.584 16.0322 108.488 16.0787 109.285 16.4403C110.845 17.0966 112.162 18.2219 113.055 19.6603L113.065 19.6403ZM110.235 24.2203C110.343 24.0797 110.422 23.9186 110.467 23.7468C110.511 23.575 110.521 23.3959 110.495 23.2203C110.481 22.8017 110.364 22.393 110.155 22.0303C109.977 21.7189 109.704 21.4733 109.375 21.3303C109.249 21.2618 109.105 21.2346 108.964 21.2526C108.822 21.2705 108.689 21.3327 108.585 21.4303C108.472 21.5551 108.389 21.7032 108.341 21.864C108.292 22.0248 108.28 22.1942 108.305 22.3603C108.317 22.785 108.441 23.199 108.665 23.5603C108.85 23.8871 109.139 24.1437 109.485 24.2903C109.606 24.3527 109.743 24.3757 109.877 24.3559C110.012 24.3362 110.137 24.2748 110.235 24.1803" fill="#F47B56"/>
<path d="M189.015 89.2801C190.017 90.7224 190.596 92.4162 190.685 94.1701C190.801 94.9711 190.608 95.7861 190.145 96.4501C189.946 96.6654 189.68 96.8086 189.391 96.8574C189.102 96.9062 188.804 96.858 188.545 96.7201C188.222 96.5923 187.929 96.3981 187.685 96.1501C187.469 95.941 187.283 95.7019 187.135 95.4401L186.975 95.1401C186.934 95.2194 186.884 95.2933 186.825 95.3601C186.67 95.4792 186.488 95.5582 186.295 95.5901C185.974 95.6493 185.644 95.611 185.345 95.4801C184.636 95.1675 184.047 94.6344 183.665 93.9601C183.196 93.2309 182.937 92.3868 182.915 91.5201C182.866 91.1748 182.893 90.823 182.995 90.4895C183.097 90.156 183.271 89.849 183.505 89.5901C183.707 89.3925 183.966 89.2624 184.245 89.2176C184.525 89.1728 184.811 89.2156 185.065 89.3401C185.325 89.4397 185.563 89.5891 185.765 89.7801C185.942 89.9304 186.1 90.1016 186.235 90.2901L186.355 90.5001V89.9301L187.635 90.4201L187.765 94.0401C187.776 94.2964 187.855 94.5451 187.995 94.7601C188.118 94.9687 188.303 95.1331 188.525 95.2301C189.175 95.4801 189.435 94.9401 189.395 93.6201C189.334 92.317 188.904 91.0581 188.155 89.9901C187.485 88.9033 186.492 88.0536 185.315 87.5601C184.886 87.3426 184.402 87.2578 183.925 87.3166C183.447 87.3754 182.998 87.575 182.635 87.8901C182.255 88.284 181.968 88.7578 181.795 89.2769C181.622 89.796 181.568 90.3472 181.635 90.8901C181.708 92.2667 182.154 93.5975 182.925 94.7401C183.558 95.8491 184.533 96.7228 185.705 97.2301C186.11 97.4015 186.545 97.4899 186.985 97.4901C187.273 97.5063 187.561 97.4549 187.825 97.3401L188.085 97.1901L188.855 98.6401L188.735 98.7301C188.612 98.7982 188.485 98.8584 188.355 98.9101C188.147 98.999 187.929 99.0595 187.705 99.0901C187.42 99.1301 187.13 99.1301 186.845 99.0901C186.475 99.0418 186.112 98.9477 185.765 98.8101C184.776 98.3842 183.897 97.7377 183.195 96.9201C182.357 96.0007 181.68 94.9458 181.195 93.8001C180.704 92.7131 180.425 91.542 180.375 90.3501C180.303 89.3509 180.507 88.3511 180.965 87.4601C181.346 86.7064 182.001 86.1269 182.795 85.8401C183.629 85.5721 184.533 85.6183 185.335 85.9701C186.873 86.6692 188.158 87.8249 189.015 89.2801ZM186.175 93.8501C186.288 93.7121 186.371 93.5516 186.418 93.3792C186.464 93.2068 186.473 93.0264 186.445 92.8501C186.434 92.4311 186.317 92.0217 186.105 91.6601C185.935 91.3443 185.664 91.0944 185.335 90.9501C185.207 90.8837 185.062 90.8577 184.919 90.8756C184.777 90.8934 184.643 90.9543 184.535 91.0501C184.424 91.1763 184.341 91.3242 184.291 91.4844C184.241 91.6446 184.226 91.8135 184.245 91.9801C184.267 92.4015 184.394 92.8107 184.615 93.1701C184.8 93.4998 185.088 93.7597 185.435 93.9101C185.554 93.9717 185.69 93.9943 185.823 93.9745C185.956 93.9548 186.079 93.8938 186.175 93.8001" fill="#F47B56"/>
<path opacity="0.25" d="M60.8252 116.701L39.0552 104.311L17.2852 116.721C17.2852 116.721 29.3952 124.291 40.2352 130.641C47.1252 125.781 53.2352 120.221 60.8252 116.701Z" fill="url(#paint4_linear_558_499)"/>
<path fill-rule="evenodd" clip-rule="evenodd" d="M21.5049 81.9002V108.84L42.4849 120.85L66.1849 106.84V79.9102" fill="black"/>
<path fill-rule="evenodd" clip-rule="evenodd" d="M21.5049 81.9002V108.84L42.4849 120.85L66.1849 106.84V79.9102" fill="#FF9271"/>
<path d="M42.4849 93.9202V120.85L66.1849 106.84V79.9102L42.4849 93.9202Z" fill="#DF5C34"/>
<path d="M21.5049 81.9005L45.8549 68.0205L66.1849 79.9105L42.4849 93.9205L21.5049 81.9005Z" fill="#F47B56"/>
<path d="M43.0451 74.2105C45.5124 74.0397 47.9767 74.5812 50.1451 75.7705C51.3951 76.5005 52.0751 77.2605 52.1451 78.0605C52.1731 78.4957 52.065 78.9289 51.8356 79.2998C51.6062 79.6708 51.267 79.9611 50.8651 80.1305C50.406 80.4112 49.902 80.6108 49.3751 80.7205C48.9393 80.8219 48.4926 80.8689 48.0451 80.8605H47.5651C47.6056 80.9708 47.6358 81.0846 47.6551 81.2005C47.6344 81.4749 47.545 81.7397 47.3951 81.9705C47.1351 82.3871 46.7739 82.7311 46.3451 82.9705C45.3318 83.5691 44.1718 83.8738 42.9951 83.8505C41.7965 83.8718 40.6146 83.5676 39.5751 82.9705C39.1596 82.7865 38.7986 82.4984 38.5271 82.134C38.2555 81.7696 38.0826 81.3413 38.0251 80.8905C38.0308 80.471 38.1536 80.0613 38.3798 79.7079C38.606 79.3545 38.9265 79.0714 39.3051 78.8905C39.6609 78.6829 40.0449 78.5279 40.4451 78.4305C40.7707 78.335 41.1063 78.278 41.4451 78.2605H41.7951L41.1551 77.8705L42.9551 76.7505L47.1251 79.2105C47.4447 79.3829 47.8021 79.4732 48.1651 79.4732C48.5282 79.4732 48.8856 79.3829 49.2051 79.2105C50.0851 78.6505 49.7651 77.9305 48.2551 77.0305C46.643 76.1442 44.8108 75.7382 42.9751 75.8605C41.0375 75.8823 39.1413 76.4246 37.4851 77.4305C35.9751 78.4305 35.2251 79.5005 35.2351 80.8105C35.2451 82.1205 36.0351 83.2405 37.5951 84.1505C39.2983 85.0825 41.226 85.5255 43.1651 85.4305C45.1015 85.4633 47.009 84.9579 48.6751 83.9705C49.2501 83.6281 49.7666 83.196 50.2051 82.6905C50.495 82.3779 50.7134 82.006 50.8451 81.6005L50.9351 81.1905L53.3151 81.3305V81.5405C53.2691 81.7368 53.2123 81.9304 53.1451 82.1205C53.035 82.4191 52.8977 82.707 52.7351 82.9805C52.4877 83.3428 52.2028 83.6779 51.8851 83.9805C51.4656 84.3865 51.0028 84.7453 50.5051 85.0505C49.0747 85.9058 47.4923 86.4763 45.8451 86.7305C44.0473 87.0404 42.2123 87.0707 40.4051 86.8205C38.763 86.6287 37.1755 86.112 35.7351 85.3005C34.5748 84.6796 33.6455 83.7013 33.0851 82.5105C32.8574 81.992 32.7397 81.4318 32.7397 80.8655C32.7397 80.2992 32.8574 79.739 33.0851 79.2205C33.6339 78.0057 34.555 76.9971 35.7151 76.3405C37.9216 74.981 40.4538 74.2417 43.0451 74.2005V74.2105ZM45.3751 80.8405C45.3359 80.6203 45.2421 80.4134 45.1023 80.2388C44.9626 80.0641 44.7814 79.9272 44.5751 79.8405C44.0685 79.5577 43.4952 79.4161 42.9151 79.4305C42.3705 79.4096 41.8316 79.5486 41.3651 79.8305C41.1762 79.9214 41.0163 80.0631 40.9032 80.2397C40.7902 80.4163 40.7285 80.6209 40.7251 80.8305C40.7533 81.0477 40.8372 81.254 40.9686 81.4292C41.1 81.6044 41.2745 81.7427 41.4751 81.8305C41.9938 82.1218 42.5804 82.2702 43.1751 82.2605C43.7476 82.269 44.3114 82.1202 44.8051 81.8305C44.9972 81.7475 45.1584 81.6064 45.266 81.427C45.3736 81.2476 45.4223 81.039 45.4051 80.8305" fill="#3E2928"/>
</g>
<defs>
<linearGradient id="paint0_linear_558_499" x1="137.621" y1="101.759" x2="130.856" y2="111.271" gradientUnits="userSpaceOnUse">
<stop stop-color="#7F3500"/>
<stop offset="1" stop-color="#231F20" stop-opacity="0"/>
</linearGradient>
<linearGradient id="paint1_linear_558_499" x1="109.346" y1="144.483" x2="94.8402" y2="160.562" gradientUnits="userSpaceOnUse">
<stop offset="0.03" stop-color="#7F3500"/>
<stop offset="1" stop-color="#231F20" stop-opacity="0"/>
</linearGradient>
<linearGradient id="paint2_linear_558_499" x1="77.3513" y1="76.4202" x2="66.3184" y2="88.3684" gradientUnits="userSpaceOnUse">
<stop stop-color="#843C09" stop-opacity="0.85"/>
<stop offset="1" stop-color="#231F20" stop-opacity="0"/>
</linearGradient>
<linearGradient id="paint3_linear_558_499" x1="180.243" y1="75.8769" x2="173.704" y2="70.6481" gradientUnits="userSpaceOnUse">
<stop stop-color="white" stop-opacity="0"/>
<stop offset="0.99" stop-color="#DC841E"/>
</linearGradient>
<linearGradient id="paint4_linear_558_499" x1="53.5334" y1="110.819" x2="38.839" y2="127.174" gradientUnits="userSpaceOnUse">
<stop offset="0.03" stop-color="#7F3500"/>
<stop offset="1" stop-color="#231F20" stop-opacity="0"/>
</linearGradient>
<clipPath id="clip0_558_499">
<rect width="236.85" height="179.57" fill="white" transform="translate(0.575195 0.430176)"/>
</clipPath>
</defs>
</svg>
