<svg width="469" height="510" viewBox="0 0 469 510" fill="none" xmlns="http://www.w3.org/2000/svg">
<mask id="mask0_533_585" style="mask-type:alpha" maskUnits="userSpaceOnUse" x="0" y="0" width="469" height="510">
<rect width="468.106" height="510" rx="24" fill="white"/>
</mask>
<g mask="url(#mask0_533_585)">
<rect x="-584.115" y="-285" width="980.988" height="944" rx="24" fill="white"/>
<g opacity="0.099">
<path d="M-108.117 651.353L-565.04 385.73C-579.587 377.683 -592.056 364.5 -577.882 355.852L-119.332 95.8903C-112.459 91.6963 -102.014 88.9443 -95.0079 92.9543L384.561 366.781C399.109 375.089 401.719 398.231 387.226 406.618L-47.9043 650.933C-57.0362 656.145 -67.3939 658.925 -77.9539 658.999C-88.5139 659.073 -98.9107 656.437 -108.117 651.353Z" fill="#6862E6"/>
<path d="M-108.117 275.353L-565.04 9.73035C-579.587 1.68335 -592.056 -11.4997 -577.882 -20.1477L-119.332 -280.11C-112.459 -284.304 -102.014 -287.056 -95.0079 -283.046L384.561 -9.21866C399.109 -0.910659 401.719 22.2313 387.226 30.6183L-47.9043 274.933C-57.0362 280.145 -67.3939 282.925 -77.9539 282.999C-88.5139 283.073 -98.9107 280.437 -108.117 275.353Z" stroke="#1E1F36"/>
<path d="M-108.117 350.353L-565.04 84.7303C-579.587 76.6833 -592.056 63.5003 -577.882 54.8523L-119.332 -205.11C-112.459 -209.304 -102.014 -212.056 -95.0079 -208.046L384.561 65.7813C399.109 74.0893 401.719 97.2313 387.226 105.618L-47.9043 349.933C-57.0362 355.145 -67.3939 357.925 -77.9539 357.999C-88.5139 358.073 -98.9107 355.437 -108.117 350.353Z" stroke="#1E1F36"/>
</g>
<g clip-path="url(#clip0_533_585)">
<path d="M145.432 435.392L-74.2732 305.4C-81.2682 301.462 -87.2632 295.01 -80.4482 290.778L140.039 163.556C143.344 161.504 148.366 160.157 151.735 162.119L382.33 296.126C389.324 300.192 390.58 311.518 383.61 315.622L174.386 435.187C169.995 437.737 165.014 439.098 159.937 439.134C154.859 439.17 149.858 437.88 145.432 435.392Z" fill="#5B36A0"/>
<path d="M145.432 429.392L-74.2732 299.4C-81.2682 295.462 -87.2632 289.01 -80.4482 284.778L140.039 157.556C143.344 155.504 148.366 154.157 151.735 156.119L382.33 290.126C389.324 294.192 390.58 305.518 383.61 309.622L174.386 429.187C169.995 431.737 165.014 433.098 159.937 433.134C154.859 433.17 149.858 431.88 145.432 429.392Z" fill="#6862E6"/>
<path style="mix-blend-mode:multiply" opacity="0.25" d="M163.547 257.882L120.194 282.649C120.194 282.649 186.977 323.449 200.633 329.195L225.601 293.282" fill="url(#paint0_linear_533_585)"/>
<path style="mix-blend-mode:multiply" opacity="0.25" d="M148.571 376.702L105.206 351.987L61.8418 376.754C61.8418 376.754 84.4268 390.554 106.013 403.227C119.721 393.517 133.441 383.706 148.571 376.702Z" fill="url(#paint1_linear_533_585)"/>
<path style="mix-blend-mode:multiply" opacity="0.46" d="M55.1417 224.072L27.6367 239.784C27.6367 239.784 29.9677 254.188 43.6247 259.934L79.6347 236.847" fill="url(#paint2_linear_533_585)"/>
<path d="M68.6059 239.784C77.7683 239.784 85.1959 234.547 85.1959 228.087C85.1959 221.627 77.7683 216.39 68.6059 216.39C59.4435 216.39 52.0159 221.627 52.0159 228.087C52.0159 234.547 59.4435 239.784 68.6059 239.784Z" fill="#68E1FD"/>
<path d="M68.5927 226.278C75.4554 226.278 81.0187 223.998 81.0187 221.186C81.0187 218.374 75.4554 216.094 68.5927 216.094C61.7301 216.094 56.1667 218.374 56.1667 221.186C56.1667 223.998 61.7301 226.278 68.5927 226.278Z" fill="#974C26"/>
<path d="M68.1438 212.695C68.1438 210.399 68.0678 208.104 67.8878 205.808C67.8368 205.209 67.7818 204.615 67.7218 204.025L67.5937 202.858C67.5937 202.511 67.4138 201.575 67.4138 201.665C67.3368 201.195 67.2558 200.729 67.1708 200.267C65.8159 192.474 62.7918 185.066 58.3058 178.552C56.6179 182.574 55.7761 186.9 55.8328 191.262C55.8328 192.546 55.9357 193.828 56.0377 195.034V195.791C56.1407 196.406 56.2558 197.073 56.3838 197.637C56.8724 199.976 57.5273 202.278 58.3437 204.525C59.0779 206.593 59.9734 208.6 61.0218 210.528C62.1523 212.698 63.3788 214.816 64.6978 216.877C65.6492 218.381 66.6446 219.856 67.6828 221.302C67.9908 218.442 68.1318 215.568 68.1438 212.695ZM61.6238 186.876C61.6894 186.58 61.6894 186.274 61.6238 185.979C61.9398 186.303 62.2518 186.637 62.5588 186.979C62.2508 186.891 61.9303 186.856 61.6108 186.876H61.6238Z" fill="#999A1C"/>
<path d="M72.4098 214.464C73.68 212.548 74.8476 210.566 75.9078 208.526C76.1898 207.996 76.4628 207.466 76.7278 206.936L77.2528 205.871L77.7528 204.768L78.3028 203.485C81.3737 196.188 82.829 188.312 82.5688 180.398C78.9673 182.869 75.9146 186.057 73.6018 189.761C72.9378 190.83 72.3179 191.926 71.7438 193.045L71.4878 193.519L71.4238 193.725C71.1808 194.302 70.9368 194.879 70.7068 195.469C69.8567 197.705 69.1672 199.998 68.6438 202.331C68.1455 204.47 67.8158 206.644 67.6578 208.834C67.4316 211.269 67.3204 213.713 67.3248 216.157C67.3248 218.068 67.3248 219.813 67.4398 221.493C69.1438 219.223 70.8598 216.888 72.4098 214.464ZM80.8658 189.21C81.0658 188.984 81.2148 188.717 81.3008 188.427C81.3948 188.872 81.4758 189.3 81.5448 189.71C81.3448 189.51 81.1158 189.342 80.8658 189.21Z" fill="#999A1C"/>
<path d="M72.3208 220.186C73.6248 219.537 74.9065 218.844 76.1638 218.108L77.1238 217.518L77.7528 217.12L78.3678 216.684L79.0848 216.158C83.0904 213.213 86.4117 209.437 88.8208 205.089C86.0862 205.265 83.4172 206.003 80.9808 207.257C80.2758 207.617 79.5968 208.014 78.9178 208.424L78.6238 208.604L78.5208 208.694L77.5728 209.399C76.3917 210.331 75.2788 211.347 74.2428 212.439C73.2848 213.433 72.4064 214.5 71.6158 215.632C70.7264 216.891 69.8721 218.174 69.0538 219.48C68.4735 220.438 67.9223 221.413 67.4008 222.405C69.0538 221.712 70.7068 220.995 72.3208 220.186ZM85.0288 209.284C85.2101 209.227 85.3765 209.13 85.5158 209.001C85.4218 209.275 85.3198 209.544 85.2078 209.809C85.1744 209.63 85.1141 209.457 85.0288 209.296V209.284ZM68.1438 212.695C68.1438 210.399 68.0678 208.104 67.8878 205.808C67.8368 205.209 67.7818 204.615 67.7218 204.025L67.5937 202.858C67.5937 202.511 67.4138 201.575 67.4138 201.665C67.3368 201.195 67.2558 200.729 67.1708 200.267C65.8159 192.474 62.7918 185.066 58.3058 178.552C56.6179 182.574 55.7761 186.9 55.8328 191.262C55.8328 192.546 55.9357 193.828 56.0377 195.034V195.791C56.1407 196.406 56.2558 197.073 56.3838 197.637C56.8724 199.976 57.5273 202.278 58.3437 204.525C59.0779 206.593 59.9734 208.6 61.0218 210.528C62.1523 212.698 63.3788 214.816 64.6978 216.877C65.6492 218.381 66.6446 219.856 67.6828 221.302C67.9908 218.442 68.1318 215.568 68.1438 212.695ZM61.6238 186.876C61.6894 186.58 61.6894 186.274 61.6238 185.979C61.9398 186.303 62.2518 186.637 62.5588 186.979C62.2508 186.891 61.9303 186.856 61.6108 186.876H61.6238Z" fill="#999A1C"/>
<path d="M72.4098 214.464C73.68 212.548 74.8476 210.566 75.9078 208.526C76.1898 207.996 76.4628 207.466 76.7278 206.936L77.2528 205.871L77.7528 204.768L78.3028 203.485C81.3737 196.188 82.829 188.312 82.5688 180.398C78.9673 182.869 75.9146 186.057 73.6018 189.761C72.9378 190.83 72.3179 191.926 71.7438 193.045L71.4878 193.519L71.4238 193.725C71.1808 194.302 70.9368 194.879 70.7068 195.469C69.8567 197.705 69.1672 199.998 68.6438 202.331C68.1455 204.47 67.8158 206.644 67.6578 208.834C67.4316 211.269 67.3204 213.713 67.3248 216.157C67.3248 218.068 67.3248 219.813 67.4398 221.493C69.1438 219.223 70.8598 216.888 72.4098 214.464ZM80.8658 189.21C81.0658 188.984 81.2148 188.717 81.3008 188.427C81.3948 188.872 81.4758 189.3 81.5448 189.71C81.3448 189.51 81.1158 189.342 80.8658 189.21Z" fill="#999A1C"/>
<path d="M72.3209 220.186C73.6249 219.537 74.9066 218.844 76.1639 218.108L77.1239 217.518L77.7529 217.12L78.3679 216.684L79.0849 216.158C83.0906 213.214 86.4119 209.438 88.8209 205.089C86.0863 205.265 83.4174 206.003 80.9809 207.257C80.2759 207.617 79.5969 208.014 78.9179 208.424L78.6239 208.604L78.5209 208.694L77.5729 209.399C76.3918 210.331 75.2789 211.347 74.2429 212.439C73.2849 213.433 72.4066 214.5 71.6159 215.632C70.7265 216.891 69.8722 218.174 69.0539 219.48C68.4736 220.438 67.9224 221.413 67.4009 222.405C69.0539 221.712 70.7069 220.995 72.3209 220.186ZM85.0289 209.284C85.2102 209.227 85.3766 209.13 85.5159 209.001C85.4219 209.275 85.3199 209.544 85.2079 209.809C85.1746 209.63 85.1142 209.457 85.0289 209.296V209.284Z" fill="#999A1C"/>
<path d="M180.764 248.21L156.77 259.753C155.865 260.189 155.097 260.863 154.546 261.702C153.995 262.542 153.684 263.515 153.644 264.518C153.605 265.521 153.839 266.516 154.322 267.396C154.805 268.276 155.518 269.008 156.386 269.513L213.253 302.733C214.482 303.453 215.941 303.669 217.326 303.336C218.711 303.004 219.914 302.15 220.683 300.951L234.506 279.428" fill="#A1482D"/>
<path d="M311.268 192.533L119.938 82.1507C118.626 81.3951 117.138 80.9983 115.623 81C114.109 81.0018 112.622 81.4021 111.312 82.1607C110 82.9201 108.912 84.0109 108.155 85.3238C107.398 86.6366 107 88.1253 107 89.6407V204.474C107 205.734 107.331 206.972 107.96 208.064C108.59 209.156 109.496 210.063 110.587 210.694L314.56 328.579C315.263 328.987 316.062 329.202 316.875 329.203C317.689 329.203 318.488 328.989 319.192 328.582C319.896 328.174 320.481 327.588 320.887 326.883C321.293 326.177 321.505 325.378 321.504 324.564V210.207C321.502 206.621 320.554 203.099 318.757 199.996C316.96 196.893 314.377 194.319 311.268 192.533Z" fill="#F47B56"/>
<path d="M119.951 90.8345L305.503 197.714C307.485 198.858 309.13 200.503 310.275 202.484C311.419 204.465 312.022 206.713 312.023 209V295.076C312.022 295.9 311.805 296.709 311.393 297.422C310.982 298.135 310.391 298.728 309.679 299.141C308.967 299.554 308.16 299.773 307.337 299.775C306.514 299.778 305.705 299.564 304.991 299.155L115.762 190.492C115.053 190.086 114.465 189.499 114.056 188.792C113.646 188.085 113.431 187.282 113.431 186.465V94.6175C113.431 93.0625 114.258 91.6255 115.602 90.8455C116.262 90.4621 117.012 90.2593 117.775 90.2573C118.539 90.2554 119.289 90.4545 119.951 90.8345Z" fill="white"/>
<path d="M198.025 253.188C200.214 252.766 201.597 250.395 201.115 247.891C200.633 245.387 198.468 243.699 196.279 244.12C194.09 244.542 192.707 246.913 193.189 249.417C193.671 251.921 195.836 253.609 198.025 253.188Z" fill="#AB643C"/>
<path opacity="0.32" d="M169.824 207.616L256.054 259.485L298.649 234.692L222.54 190.339" fill="url(#paint3_linear_533_585)"/>
<path d="M276.384 197.29L183.16 140.38C182.661 140.092 182.094 139.942 181.517 139.947C180.941 139.952 180.376 140.111 179.882 140.408C179.387 140.706 178.982 141.13 178.706 141.637C178.431 142.144 178.297 142.716 178.317 143.292V175.718C178.313 176.305 178.461 176.882 178.746 177.394C179.031 177.907 179.444 178.337 179.944 178.642L273.156 234.346C274.153 234.913 275.376 234.906 276.366 234.326C276.853 234.042 277.256 233.634 277.536 233.144C277.816 232.655 277.962 232.1 277.96 231.536L278.447 201.306C278.483 200.515 278.311 199.729 277.949 199.025C277.588 198.32 277.048 197.722 276.384 197.29Z" fill="#E2AC00"/>
<path d="M254.081 213.978C257.424 218.659 263.304 219.968 267.199 216.915C271.093 213.862 271.542 207.591 268.199 202.922C264.854 198.253 258.974 196.932 255.079 199.985C251.185 203.037 250.737 209.296 254.081 213.978Z" fill="white"/>
<path d="M244.934 191.507L206.911 168.587C206.584 168.434 206.212 168.408 205.868 168.515C205.523 168.622 205.231 168.854 205.049 169.165C204.866 169.476 204.806 169.844 204.88 170.198C204.955 170.551 205.158 170.864 205.451 171.075L243.473 193.995C243.799 194.148 244.171 194.173 244.516 194.067C244.86 193.96 245.152 193.728 245.335 193.417C245.518 193.106 245.578 192.738 245.504 192.384C245.43 192.031 245.226 191.718 244.934 191.507ZM243.371 200.819L190.961 169.228C190.64 169.118 190.29 169.124 189.973 169.244C189.656 169.365 189.391 169.594 189.225 169.89C189.059 170.186 189.002 170.531 189.064 170.864C189.126 171.198 189.303 171.499 189.565 171.716L241.91 203.319C242.236 203.472 242.608 203.497 242.953 203.391C243.297 203.284 243.589 203.052 243.772 202.741C243.955 202.43 244.015 202.062 243.941 201.708C243.867 201.355 243.663 201.042 243.371 200.831V200.819Z" fill="#F2F2F2"/>
<path d="M257.783 203.576L164.61 146.679C164.111 146.39 163.544 146.24 162.967 146.245C162.391 146.25 161.826 146.41 161.332 146.707C160.837 147.004 160.432 147.428 160.156 147.935C159.881 148.443 159.747 149.014 159.767 149.591V182.002C159.759 182.589 159.904 183.169 160.187 183.684C160.47 184.199 160.882 184.631 161.382 184.94L254.593 240.643C255.601 241.223 256.843 241.213 257.841 240.618C258.332 240.325 258.736 239.907 259.011 239.406C259.287 238.906 259.425 238.341 259.41 237.77L259.897 207.54C259.918 206.752 259.735 205.973 259.364 205.278C258.994 204.583 258.449 203.997 257.783 203.576Z" fill="#F47B56"/>
<path d="M235.479 220.263C238.823 224.944 244.703 226.253 248.598 223.2C252.492 220.147 252.94 213.875 249.597 209.207C246.253 204.537 240.373 203.217 236.479 206.269C232.584 209.322 232.136 215.581 235.479 220.263Z" fill="white"/>
<path d="M226.332 197.791L188.284 174.871C187.957 174.718 187.585 174.692 187.241 174.799C186.897 174.906 186.604 175.138 186.422 175.449C186.239 175.76 186.179 176.128 186.253 176.481C186.328 176.835 186.531 177.147 186.824 177.359L224.846 200.279C225.172 200.432 225.544 200.457 225.889 200.35C226.233 200.243 226.525 200.012 226.708 199.701C226.891 199.389 226.951 199.021 226.877 198.668C226.803 198.315 226.599 198.002 226.307 197.791H226.332ZM224.757 207.167L172.36 175.525C172.033 175.372 171.661 175.346 171.317 175.453C170.972 175.56 170.68 175.792 170.498 176.104C170.315 176.415 170.255 176.783 170.329 177.136C170.404 177.49 170.607 177.802 170.9 178.014L223.309 209.604C223.635 209.757 224.007 209.782 224.352 209.675C224.696 209.568 224.988 209.337 225.171 209.026C225.354 208.714 225.414 208.346 225.339 207.993C225.265 207.64 225.062 207.327 224.769 207.116L224.757 207.167Z" fill="#F2F2F2"/>
<path d="M234.404 207.399L141.204 150.502C140.705 150.213 140.138 150.063 139.561 150.067C138.985 150.072 138.42 150.231 137.926 150.529C137.432 150.826 137.026 151.25 136.751 151.757C136.476 152.265 136.342 152.836 136.362 153.413V185.825C136.358 186.411 136.506 186.988 136.791 187.501C137.076 188.013 137.489 188.443 137.989 188.749L231.2 244.453C232.208 245.033 233.45 245.023 234.449 244.427C234.939 244.134 235.343 243.716 235.618 243.215C235.894 242.715 236.031 242.151 236.017 241.58L236.504 211.349C236.524 210.565 236.342 209.789 235.974 209.097C235.606 208.405 235.065 207.82 234.404 207.399Z" fill="#68E1FD"/>
<path d="M234.404 207.399L141.204 150.502C140.705 150.213 140.138 150.063 139.561 150.067C138.985 150.072 138.42 150.231 137.926 150.529C137.432 150.826 137.026 151.25 136.751 151.757C136.476 152.265 136.342 152.836 136.362 153.413V185.825C136.358 186.411 136.506 186.988 136.791 187.501C137.076 188.013 137.489 188.443 137.989 188.749L231.2 244.453C232.208 245.033 233.45 245.023 234.449 244.427C234.939 244.134 235.343 243.716 235.618 243.215C235.894 242.715 236.031 242.151 236.017 241.58L236.504 211.349C236.524 210.565 236.342 209.789 235.974 209.097C235.606 208.405 235.065 207.82 234.404 207.399Z" fill="#68E1FD"/>
<path d="M212.087 224.085C215.43 228.766 221.311 230.075 225.205 227.022C229.1 223.969 229.548 217.697 226.205 213.029C222.861 208.36 216.98 207.039 213.086 210.092C209.192 213.144 208.782 219.403 212.086 224.085H212.087Z" fill="white"/>
<path d="M202.94 201.614L164.905 178.694C164.578 178.541 164.206 178.515 163.862 178.622C163.517 178.729 163.225 178.961 163.043 179.272C162.86 179.583 162.8 179.951 162.874 180.304C162.948 180.658 163.151 180.97 163.444 181.182L201.467 204.102C201.793 204.255 202.165 204.28 202.51 204.174C202.854 204.067 203.146 203.835 203.329 203.524C203.512 203.213 203.572 202.844 203.497 202.491C203.423 202.138 203.22 201.825 202.927 201.614H202.94ZM201.364 210.939L148.955 179.347C148.628 179.194 148.256 179.169 147.912 179.276C147.567 179.383 147.275 179.615 147.093 179.926C146.91 180.237 146.85 180.605 146.924 180.959C146.999 181.312 147.202 181.625 147.495 181.836L199.904 213.426C200.23 213.579 200.602 213.604 200.947 213.498C201.291 213.391 201.583 213.159 201.766 212.848C201.949 212.537 202.009 212.168 201.934 211.815C201.86 211.462 201.657 211.149 201.364 210.938V210.939Z" fill="#F2F2F2"/>
<path d="M112.086 204.217C106.062 209.409 101.507 216.092 98.8779 223.597C94.2399 236.424 105.834 257.381 105.834 257.381L123.872 243.081" fill="#FF8F6F"/>
<path d="M110.138 373.791L105.245 371.085L106.525 364.082C106.525 364.082 113.815 364.774 114.455 367.365" fill="#003B94"/>
<path d="M111.932 373.689C113.034 373.009 114.187 372.406 115.327 371.803C118.157 370.251 122.245 368.648 123.987 365.736C124.344 365.147 124.513 364.463 124.472 363.776C124.431 363.089 124.182 362.43 123.757 361.888C121.194 358.784 115.583 363.889 112.713 360.452C112.15 359.772 111.881 348.985 111.881 348.985L100.966 351.935C100.966 351.935 99.121 373.611 99.326 374.945C99.531 376.279 103.285 377.511 103.285 377.511C104.403 377.273 105.47 376.838 106.436 376.228C107.576 375.394 106.538 365.223 107.999 366.647C109.459 368.071 110.099 373.637 110.099 373.637C110.706 373.729 111.321 373.747 111.932 373.688V373.689Z" fill="#F47B56"/>
<path d="M130.982 384.269L126.088 381.602L127.368 374.599C127.368 374.599 134.658 375.292 135.298 377.882" fill="#003B94"/>
<path d="M132.826 384.167C133.928 383.487 135.081 382.885 136.221 382.282C139.052 380.73 143.139 379.127 144.881 376.215C145.238 375.626 145.407 374.942 145.366 374.255C145.325 373.568 145.076 372.909 144.651 372.367C142.088 369.263 136.477 374.368 133.608 370.931C133.044 370.251 132.775 359.464 132.775 359.464L121.86 362.414C121.86 362.414 120.003 384.167 120.208 385.45C120.413 386.732 124.166 388.015 124.166 388.015C125.284 387.777 126.351 387.343 127.318 386.732C128.458 385.899 127.42 375.728 128.881 377.152C130.341 378.575 130.981 384.142 130.981 384.142C131.593 384.226 132.212 384.235 132.826 384.167Z" fill="#F47B56"/>
<path d="M95.4189 313.803L92.2029 356.861C92.2029 356.861 97.3279 363.941 114.507 360.003L114.673 330.977M115.263 322.333C114.891 326.039 115.263 366.929 115.263 366.929C115.263 366.929 120.015 375.83 140.705 366.929L140.41 332.183" fill="#3E2928"/>
<path d="M93.8169 328.027C95.2269 329.002 95.7129 323.987 97.1869 324.847C102.546 327.963 108.234 330.475 114.148 332.337H114.276C114.417 332.268 114.57 332.229 114.726 332.221C114.883 332.213 115.039 332.236 115.187 332.29C115.334 332.344 115.468 332.427 115.583 332.534C115.697 332.641 115.789 332.77 115.852 332.914C119.505 334.005 123.223 334.861 126.985 335.479C131.815 336.249 135.811 332.671 140.769 332.427C140.769 313.419 140.859 259.318 132.775 247.775L108.857 239.72C108.742 241.695 97.2509 255.034 97.5319 271.298C97.8519 289.626 95.4699 306.916 95.0599 312.649C94.9959 313.624 93.8689 326.989 93.8169 328.027Z" fill="#3E2928"/>
<path d="M134.978 225.919L132.775 247.723C132.775 247.723 114.93 248.442 107.243 243.132V224.636" fill="#FF8F6F"/>
<path d="M157.666 211.566L155.847 214.054C156.817 212.03 157.673 209.954 158.409 207.834C158.922 206.384 156.603 205.807 156.091 207.256L155.821 208C156.044 207.23 156.253 206.457 156.449 205.678C156.49 205.525 156.499 205.366 156.478 205.208C156.456 205.051 156.403 204.9 156.323 204.764C156.242 204.627 156.135 204.508 156.008 204.414C155.881 204.319 155.736 204.25 155.582 204.212C155.429 204.174 155.269 204.167 155.112 204.191C154.955 204.215 154.805 204.27 154.67 204.353C154.535 204.435 154.417 204.544 154.325 204.673C154.232 204.801 154.166 204.947 154.13 205.101C153.627 207.114 153.025 209.101 152.324 211.053C152.715 209.32 152.998 207.563 153.17 205.793C153.324 204.268 150.928 204.332 150.787 205.793C150.588 207.807 150.228 209.802 149.711 211.758C149.711 211.074 149.647 210.39 149.519 209.706C149.501 209.536 149.448 209.371 149.362 209.223C149.275 209.074 149.159 208.946 149.019 208.846C148.954 208.578 148.877 208.313 148.789 208.051C148.698 207.783 148.516 207.554 148.274 207.407C148.032 207.259 147.745 207.202 147.465 207.245C147.185 207.288 146.928 207.429 146.742 207.642C146.555 207.855 146.449 208.128 146.444 208.411L146.29 217.389C145.857 218.319 145.291 219.184 144.612 219.954C145.765 220.753 146.876 221.609 147.943 222.519C148.894 223.325 149.801 224.181 150.659 225.084C151.425 224.131 152.164 223.156 152.875 222.16C152.963 222.085 153.041 221.999 153.105 221.903C155.238 218.742 157.443 215.629 159.716 212.566C160.664 211.514 158.576 210.347 157.666 211.566Z" fill="#FFB5A9"/>
<path d="M123.654 206.039C123.654 206.039 132.084 208.309 135.504 213.734C137.646 217.489 139.534 221.385 141.154 225.394L147.379 215.709C147.379 215.709 154.938 218.031 157.935 221.751C157.935 221.751 148.968 241.374 141.153 243.055C133.339 244.735 125.037 231.537 125.037 231.537C125.037 231.537 123.321 237.052 123.654 231.165" fill="#FF8F6F"/>
<path d="M129.009 227.009C126.558 225.012 124.709 222.375 123.667 219.391C122.654 215.941 123.923 212.913 125.101 209.707C126.377 206.528 127.121 203.161 127.305 199.741C127.407 196.381 127.023 193.021 126.792 189.672C126.759 189.528 126.759 189.379 126.792 189.236C125.665 185.453 123.359 182.246 118.812 181.861C107.038 180.861 106.372 193.918 106.462 199.228C106.552 204.538 107.115 208.129 103.208 210.348C99.2998 212.567 96.4818 218.39 100.21 223.098C103.938 227.804 100.594 226.086 98.1088 230.267C95.6238 234.448 96.2638 239.669 101.363 241.554C106.462 243.439 130.162 239.899 132.339 237.706C133.112 236.822 133.512 235.672 133.454 234.5C132.923 231.549 131.344 228.888 129.009 227.009Z" fill="#007F68"/>
<path d="M140.59 119.321C142.586 122.197 143.739 125.573 143.92 129.069C144.143 130.669 143.755 132.295 142.832 133.622C142.439 134.055 141.913 134.344 141.338 134.444C140.762 134.544 140.169 134.449 139.654 134.174C139.006 133.915 138.421 133.522 137.938 133.02C137.503 132.611 137.132 132.14 136.836 131.622L136.529 131.019C136.445 131.177 136.341 131.323 136.221 131.455C135.916 131.693 135.554 131.847 135.171 131.904C134.53 132.023 133.868 131.942 133.275 131.673C131.858 131.059 130.68 130.001 129.918 128.659C128.999 127.2 128.486 125.522 128.432 123.798C128.338 123.108 128.396 122.407 128.602 121.742C128.808 121.077 129.157 120.466 129.624 119.95C130.029 119.558 130.546 119.301 131.103 119.213C131.66 119.126 132.231 119.213 132.737 119.462C133.25 119.667 133.723 119.962 134.133 120.335C134.483 120.632 134.792 120.972 135.055 121.348L135.285 121.758V120.617L137.848 121.617L138.104 128.826C138.122 129.342 138.282 129.843 138.566 130.275C138.806 130.692 139.175 131.02 139.616 131.211C140.854 131.699 141.426 130.63 141.333 128.005C141.204 125.405 140.347 122.894 138.86 120.758C137.524 118.586 135.539 116.89 133.185 115.91C132.331 115.475 131.366 115.307 130.415 115.429C129.465 115.55 128.572 115.955 127.855 116.59C127.09 117.36 126.507 118.292 126.15 119.318C125.793 120.343 125.671 121.436 125.793 122.515C125.939 125.264 126.824 127.923 128.355 130.211C129.573 132.469 131.493 134.27 133.825 135.341C134.637 135.681 135.509 135.851 136.388 135.841C136.96 135.88 137.532 135.774 138.053 135.534L138.566 135.251L140.116 138.137L139.859 138.317C139.616 138.454 139.363 138.573 139.104 138.676C138.694 138.853 138.264 138.974 137.822 139.036C137.257 139.112 136.684 139.112 136.119 139.036C135.376 138.947 134.648 138.761 133.954 138.484C131.98 137.634 130.227 136.344 128.829 134.713C127.171 132.877 125.829 130.78 124.858 128.505C123.885 126.332 123.329 123.995 123.218 121.617C123.08 119.617 123.488 117.618 124.397 115.833C125.151 114.335 126.454 113.186 128.035 112.626C129.691 112.08 131.49 112.172 133.082 112.883C136.191 114.199 138.815 116.449 140.59 119.321ZM134.94 128.441C135.36 127.903 135.55 127.22 135.465 126.542C135.444 125.706 135.211 124.89 134.786 124.17C134.439 123.541 133.894 123.045 133.236 122.759C132.984 122.629 132.697 122.578 132.416 122.615C132.134 122.652 131.871 122.773 131.66 122.964C131.439 123.216 131.274 123.512 131.177 123.833C131.08 124.154 131.053 124.492 131.097 124.824C131.126 125.67 131.377 126.493 131.827 127.209C132.197 127.861 132.767 128.374 133.454 128.672C133.694 128.795 133.967 128.839 134.234 128.798C134.501 128.756 134.748 128.631 134.94 128.441ZM291.847 258.202C293.846 261.076 294.999 264.453 295.177 267.95C295.4 269.55 295.012 271.176 294.089 272.503C293.695 272.933 293.169 273.221 292.595 273.321C292.02 273.421 291.428 273.327 290.912 273.055C290.266 272.793 289.681 272.4 289.195 271.901C288.762 271.49 288.391 271.019 288.093 270.502L287.786 269.9C287.699 270.056 287.596 270.202 287.478 270.336C287.174 270.576 286.812 270.731 286.428 270.785C285.793 270.913 285.134 270.836 284.545 270.567C283.127 269.95 281.948 268.887 281.188 267.54C280.26 266.079 279.743 264.395 279.689 262.666C279.592 261.976 279.648 261.274 279.854 260.608C280.06 259.943 280.411 259.332 280.881 258.818C281.285 258.427 281.799 258.171 282.354 258.084C282.909 257.996 283.477 258.083 283.981 258.331C284.495 258.535 284.968 258.83 285.377 259.203C285.727 259.505 286.037 259.85 286.3 260.229L286.543 260.639V259.498L289.105 260.485L289.362 267.694C289.384 268.209 289.543 268.709 289.822 269.143C290.064 269.56 290.432 269.888 290.873 270.079C292.154 270.567 292.68 269.502 292.603 266.873C292.473 264.269 291.616 261.754 290.13 259.613C288.794 257.449 286.814 255.758 284.468 254.778C283.615 254.343 282.651 254.174 281.701 254.293C280.75 254.412 279.858 254.813 279.138 255.445C278.376 256.224 277.8 257.165 277.452 258.197C277.104 259.23 276.993 260.328 277.128 261.409C277.271 264.158 278.156 266.817 279.689 269.104C280.955 271.309 282.895 273.049 285.224 274.068C286.036 274.406 286.906 274.58 287.786 274.581C288.358 274.614 288.929 274.508 289.451 274.273L289.964 273.991L291.514 276.877L291.258 277.057C291.014 277.194 290.762 277.314 290.502 277.416C290.09 277.586 289.66 277.706 289.221 277.775C288.651 277.85 288.074 277.85 287.504 277.775C286.765 277.681 286.042 277.492 285.352 277.211C283.38 276.364 281.627 275.079 280.227 273.452C278.569 271.612 277.227 269.51 276.257 267.232C275.283 265.059 274.727 262.722 274.617 260.344C274.478 258.349 274.885 256.353 275.795 254.572C276.551 253.073 277.853 251.921 279.433 251.353C281.094 250.812 282.895 250.904 284.493 251.61C287.566 252.995 290.135 255.298 291.847 258.202ZM286.197 267.322C286.407 267.056 286.563 266.752 286.656 266.426C286.748 266.1 286.775 265.759 286.735 265.423C286.713 264.586 286.475 263.769 286.044 263.051C285.703 262.422 285.162 261.925 284.506 261.64C284.255 261.508 283.97 261.456 283.688 261.49C283.407 261.524 283.143 261.644 282.931 261.832C282.706 262.082 282.538 262.377 282.438 262.698C282.338 263.02 282.31 263.359 282.354 263.692C282.384 264.534 282.635 265.352 283.084 266.065C283.453 266.72 284.024 267.237 284.711 267.54C284.95 267.665 285.222 267.711 285.489 267.672C285.756 267.633 286.004 267.51 286.197 267.322Z" fill="#F47B56"/>
<path style="mix-blend-mode:multiply" opacity="0.46" d="M36.5529 312.892L-6.81208 288.188L-50.1631 312.942C-50.1631 312.942 -26.0411 328.025 -4.45408 340.698C9.25292 331.001 21.4359 319.908 36.5529 312.892Z" fill="url(#paint4_linear_533_585)"/>
</g>
</g>
<defs>
<linearGradient id="paint0_linear_533_585" x1="6569.1" y1="2883.63" x2="5174.9" y2="4775.32" gradientUnits="userSpaceOnUse">
<stop stop-color="#78B46A"/>
<stop offset="0.03" stop-color="#7F3500"/>
<stop offset="1" stop-color="white"/>
</linearGradient>
<linearGradient id="paint1_linear_533_585" x1="7189.75" y1="1813.3" x2="4265.69" y2="5023.51" gradientUnits="userSpaceOnUse">
<stop stop-color="#78B46A"/>
<stop offset="0.03" stop-color="#7F3500"/>
<stop offset="1" stop-color="white"/>
</linearGradient>
<linearGradient id="paint2_linear_533_585" x1="4221.79" y1="1008.16" x2="2029.36" y2="3415.4" gradientUnits="userSpaceOnUse">
<stop stop-color="#78B46A"/>
<stop offset="0.03" stop-color="#7F3500"/>
<stop offset="1" stop-color="white"/>
</linearGradient>
<linearGradient id="paint3_linear_533_585" x1="10606.7" y1="4379.83" x2="9292.88" y2="3420.51" gradientUnits="userSpaceOnUse">
<stop stop-color="white" stop-opacity="0"/>
<stop offset="0.99" stop-color="#DC841E"/>
</linearGradient>
<linearGradient id="paint4_linear_533_585" x1="6944.35" y1="1436.27" x2="3799.04" y2="5369.61" gradientUnits="userSpaceOnUse">
<stop stop-color="#78B46A"/>
<stop offset="0.03" stop-color="#7F3500"/>
<stop offset="1" stop-color="white"/>
</linearGradient>
<clipPath id="clip0_533_585">
<rect x="-83.4448" y="55" width="480.317" height="509" rx="24" fill="white"/>
</clipPath>
</defs>
</svg>
