<svg width="525" height="510" viewBox="0 0 525 510" fill="none" xmlns="http://www.w3.org/2000/svg">
<mask id="mask0_558_777" style="mask-type:alpha" maskUnits="userSpaceOnUse" x="124" y="0" width="401" height="510">
<path d="M124.07 24C124.07 10.7452 134.815 0 148.07 0H524.219V510H148.07C134.816 510 124.07 499.255 124.07 486V24Z" fill="white"/>
</mask>
<g mask="url(#mask0_558_777)">
<rect x="-460.044" y="-285" width="980.988" height="944" rx="24" fill="white"/>
<g opacity="0.099">
<path d="M15.9534 651.353L-440.97 385.73C-455.517 377.683 -467.986 364.5 -453.812 355.852L4.73819 95.8903C11.6112 91.6963 22.056 88.9443 29.0624 92.9543L508.632 366.781C523.18 375.089 525.79 398.231 511.297 406.618L76.166 650.933C67.0341 656.145 56.6764 658.925 46.1164 658.999C35.5564 659.072 25.1596 656.437 15.9534 651.353Z" fill="#6862E6"/>
<path d="M15.9534 275.353L-440.97 9.73035C-455.517 1.68335 -467.986 -11.4997 -453.812 -20.1477L4.73819 -280.11C11.6112 -284.304 22.056 -287.056 29.0624 -283.046L508.632 -9.21866C523.18 -0.910659 525.79 22.2313 511.297 30.6183L76.166 274.933C67.0341 280.145 56.6764 282.925 46.1164 282.999C35.5564 283.073 25.1596 280.437 15.9534 275.353Z" stroke="#1E1F36"/>
<path d="M15.9534 350.353L-440.97 84.7303C-455.517 76.6833 -467.986 63.5003 -453.812 54.8523L4.73819 -205.11C11.6112 -209.304 22.056 -212.056 29.0624 -208.046L508.632 65.7813C523.18 74.0893 525.79 97.2313 511.297 105.618L76.166 349.933C67.0341 355.145 56.6764 357.925 46.1164 357.999C35.5564 358.073 25.1596 355.437 15.9534 350.353Z" stroke="#1E1F36"/>
</g>
<g clip-path="url(#clip0_558_777)">
<path d="M269.877 435.392L50.1717 305.4C43.1767 301.462 37.1817 295.01 43.9967 290.778L264.484 163.556C267.789 161.504 272.811 160.157 276.18 162.119L506.775 296.126C513.769 300.192 515.025 311.518 508.055 315.622L298.831 435.187C294.44 437.737 289.459 439.098 284.381 439.134C279.304 439.17 274.303 437.88 269.877 435.392Z" fill="#5B36A0"/>
<path d="M269.877 429.392L50.1717 299.4C43.1767 295.462 37.1817 289.01 43.9967 284.778L264.484 157.556C267.789 155.504 272.811 154.157 276.18 156.119L506.775 290.126C513.769 294.192 515.025 305.518 508.055 309.622L298.831 429.187C294.44 431.737 289.459 433.098 284.381 433.134C279.304 433.17 274.303 431.88 269.877 429.392Z" fill="#6862E6"/>
<path style="mix-blend-mode:multiply" opacity="0.25" d="M287.992 257.882L244.639 282.649C244.639 282.649 311.422 323.449 325.078 329.195L350.046 293.282" fill="url(#paint0_linear_558_777)"/>
<path style="mix-blend-mode:multiply" opacity="0.25" d="M273.016 376.702L229.651 351.987L186.287 376.754C186.287 376.754 208.872 390.554 230.458 403.227C244.166 393.517 257.886 383.706 273.016 376.702Z" fill="url(#paint1_linear_558_777)"/>
<path style="mix-blend-mode:multiply" opacity="0.46" d="M179.587 224.072L152.082 239.784C152.082 239.784 154.413 254.188 168.07 259.934L204.08 236.847" fill="url(#paint2_linear_558_777)"/>
<path d="M193.05 239.784C202.213 239.784 209.64 234.547 209.64 228.087C209.64 221.627 202.213 216.39 193.05 216.39C183.888 216.39 176.46 221.627 176.46 228.087C176.46 234.547 183.888 239.784 193.05 239.784Z" fill="#68E1FD"/>
<path d="M193.038 226.278C199.901 226.278 205.464 223.998 205.464 221.186C205.464 218.374 199.901 216.094 193.038 216.094C186.175 216.094 180.612 218.374 180.612 221.186C180.612 223.998 186.175 226.278 193.038 226.278Z" fill="#974C26"/>
<path d="M192.589 212.695C192.589 210.399 192.513 208.104 192.333 205.808C192.282 205.209 192.227 204.615 192.167 204.025L192.039 202.858C192.039 202.511 191.859 201.575 191.859 201.665C191.782 201.195 191.701 200.729 191.616 200.267C190.261 192.474 187.237 185.066 182.751 178.552C181.063 182.574 180.221 186.9 180.278 191.262C180.278 192.546 180.381 193.828 180.483 195.034V195.791C180.586 196.406 180.701 197.073 180.829 197.637C181.317 199.976 181.972 202.278 182.789 204.525C183.523 206.593 184.418 208.6 185.467 210.528C186.597 212.698 187.824 214.816 189.143 216.877C190.094 218.381 191.089 219.856 192.128 221.302C192.436 218.442 192.577 215.568 192.589 212.695ZM186.069 186.876C186.134 186.58 186.134 186.274 186.069 185.979C186.385 186.303 186.697 186.637 187.004 186.979C186.696 186.891 186.375 186.856 186.056 186.876H186.069Z" fill="#999A1C"/>
<path d="M196.855 214.464C198.125 212.548 199.292 210.566 200.353 208.526C200.635 207.996 200.908 207.466 201.173 206.936L201.698 205.871L202.198 204.768L202.748 203.485C205.819 196.188 207.274 188.312 207.014 180.398C203.412 182.869 200.359 186.057 198.047 189.761C197.383 190.83 196.763 191.926 196.189 193.045L195.933 193.519L195.869 193.725C195.626 194.302 195.382 194.879 195.152 195.469C194.301 197.705 193.612 199.998 193.089 202.331C192.59 204.47 192.261 206.644 192.103 208.834C191.876 211.269 191.765 213.713 191.77 216.157C191.77 218.068 191.77 219.813 191.885 221.493C193.589 219.223 195.305 216.888 196.855 214.464ZM205.311 189.21C205.511 188.984 205.66 188.717 205.746 188.427C205.84 188.872 205.921 189.3 205.99 189.71C205.79 189.51 205.561 189.342 205.311 189.21Z" fill="#999A1C"/>
<path d="M196.766 220.186C198.07 219.537 199.351 218.844 200.609 218.108L201.569 217.518L202.198 217.12L202.813 216.684L203.53 216.158C207.535 213.213 210.857 209.437 213.266 205.089C210.531 205.265 207.862 206.003 205.426 207.257C204.721 207.617 204.042 208.014 203.363 208.424L203.069 208.604L202.966 208.694L202.018 209.399C200.836 210.331 199.724 211.347 198.688 212.439C197.73 213.433 196.851 214.5 196.061 215.632C195.171 216.891 194.317 218.174 193.499 219.48C192.918 220.438 192.367 221.413 191.846 222.405C193.499 221.712 195.152 220.995 196.766 220.186ZM209.474 209.284C209.655 209.227 209.821 209.13 209.961 209.001C209.867 209.275 209.765 209.544 209.653 209.809C209.619 209.63 209.559 209.457 209.474 209.296V209.284ZM192.589 212.695C192.589 210.399 192.513 208.104 192.333 205.808C192.282 205.209 192.227 204.615 192.167 204.025L192.039 202.858C192.039 202.511 191.859 201.575 191.859 201.665C191.782 201.195 191.701 200.729 191.616 200.267C190.261 192.474 187.237 185.066 182.751 178.552C181.063 182.574 180.221 186.9 180.278 191.262C180.278 192.546 180.381 193.828 180.483 195.034V195.791C180.586 196.406 180.701 197.073 180.829 197.637C181.317 199.976 181.972 202.278 182.789 204.525C183.523 206.593 184.418 208.6 185.467 210.528C186.597 212.698 187.824 214.816 189.143 216.877C190.094 218.381 191.089 219.856 192.128 221.302C192.436 218.442 192.577 215.568 192.589 212.695ZM186.069 186.876C186.134 186.58 186.134 186.274 186.069 185.979C186.385 186.303 186.697 186.637 187.004 186.979C186.696 186.891 186.375 186.856 186.056 186.876H186.069Z" fill="#999A1C"/>
<path d="M196.855 214.464C198.125 212.548 199.292 210.566 200.353 208.526C200.635 207.996 200.908 207.466 201.173 206.936L201.698 205.871L202.198 204.768L202.748 203.485C205.819 196.188 207.274 188.312 207.014 180.398C203.412 182.869 200.359 186.057 198.047 189.761C197.383 190.83 196.763 191.926 196.189 193.045L195.933 193.519L195.869 193.725C195.626 194.302 195.382 194.879 195.152 195.469C194.301 197.705 193.612 199.998 193.089 202.331C192.59 204.47 192.261 206.644 192.103 208.834C191.876 211.269 191.765 213.713 191.77 216.157C191.77 218.068 191.77 219.813 191.885 221.493C193.589 219.223 195.305 216.888 196.855 214.464ZM205.311 189.21C205.511 188.984 205.66 188.717 205.746 188.427C205.84 188.872 205.921 189.3 205.99 189.71C205.79 189.51 205.561 189.342 205.311 189.21Z" fill="#999A1C"/>
<path d="M196.766 220.186C198.07 219.537 199.351 218.844 200.609 218.108L201.569 217.518L202.198 217.12L202.813 216.684L203.53 216.158C207.535 213.214 210.857 209.438 213.266 205.089C210.531 205.265 207.862 206.003 205.426 207.257C204.721 207.617 204.042 208.014 203.363 208.424L203.069 208.604L202.966 208.694L202.018 209.399C200.837 210.331 199.724 211.347 198.688 212.439C197.73 213.433 196.851 214.5 196.061 215.632C195.171 216.891 194.317 218.174 193.499 219.48C192.918 220.438 192.367 221.413 191.846 222.405C193.499 221.712 195.152 220.995 196.766 220.186ZM209.474 209.284C209.655 209.227 209.821 209.13 209.961 209.001C209.867 209.275 209.765 209.544 209.653 209.809C209.619 209.63 209.559 209.457 209.474 209.296V209.284Z" fill="#999A1C"/>
<path d="M305.209 248.21L281.215 259.753C280.31 260.189 279.542 260.863 278.991 261.702C278.44 262.542 278.129 263.515 278.089 264.518C278.05 265.521 278.284 266.516 278.767 267.396C279.25 268.276 279.963 269.008 280.831 269.513L337.698 302.733C338.927 303.453 340.386 303.669 341.771 303.336C343.156 303.004 344.359 302.15 345.128 300.951L358.951 279.428" fill="#A1482D"/>
<path d="M435.713 192.533L244.383 82.1507C243.071 81.3951 241.583 80.9983 240.068 81C238.554 81.0018 237.067 81.4021 235.757 82.1607C234.445 82.9201 233.357 84.0109 232.6 85.3238C231.843 86.6366 231.445 88.1253 231.445 89.6407V204.474C231.445 205.734 231.776 206.972 232.406 208.064C233.035 209.156 233.941 210.063 235.032 210.694L439.005 328.579C439.708 328.987 440.507 329.202 441.32 329.203C442.134 329.203 442.933 328.989 443.637 328.582C444.341 328.174 444.926 327.588 445.332 326.883C445.738 326.177 445.95 325.378 445.949 324.564V210.207C445.947 206.621 444.999 203.099 443.202 199.996C441.405 196.893 438.822 194.319 435.713 192.533Z" fill="#F47B56"/>
<path d="M244.395 90.8345L429.947 197.714C431.929 198.858 433.575 200.503 434.72 202.484C435.864 204.465 436.467 206.713 436.467 209V295.076C436.466 295.9 436.249 296.709 435.838 297.422C435.427 298.135 434.836 298.728 434.124 299.141C433.412 299.554 432.604 299.773 431.781 299.775C430.959 299.778 430.15 299.564 429.435 299.155L240.206 190.492C239.498 190.086 238.909 189.499 238.5 188.792C238.091 188.085 237.875 187.282 237.875 186.465V94.6175C237.875 93.0625 238.702 91.6255 240.046 90.8455C240.707 90.4621 241.456 90.2593 242.22 90.2573C242.984 90.2554 243.733 90.4545 244.395 90.8345Z" fill="white"/>
<path d="M322.47 253.188C324.658 252.766 326.042 250.395 325.56 247.891C325.077 245.387 322.912 243.699 320.723 244.12C318.535 244.542 317.151 246.913 317.633 249.417C318.115 251.921 320.281 253.609 322.47 253.188Z" fill="#AB643C"/>
<path opacity="0.32" d="M294.269 207.616L380.499 259.485L423.094 234.692L346.985 190.339" fill="url(#paint3_linear_558_777)"/>
<path d="M400.829 197.29L307.605 140.38C307.106 140.092 306.538 139.942 305.962 139.947C305.385 139.952 304.821 140.111 304.327 140.408C303.832 140.706 303.426 141.13 303.151 141.637C302.876 142.144 302.742 142.716 302.762 143.292V175.718C302.758 176.305 302.906 176.882 303.191 177.394C303.476 177.907 303.888 178.337 304.389 178.642L397.601 234.346C398.598 234.913 399.821 234.906 400.811 234.326C401.297 234.042 401.701 233.634 401.981 233.144C402.26 232.655 402.407 232.1 402.405 231.536L402.892 201.306C402.928 200.515 402.756 199.729 402.394 199.025C402.032 198.32 401.493 197.722 400.829 197.29Z" fill="#E2AC00"/>
<path d="M378.525 213.978C381.868 218.659 387.748 219.968 391.643 216.915C395.537 213.862 395.986 207.591 392.643 202.922C389.298 198.253 383.419 196.932 379.524 199.985C375.63 203.037 375.181 209.296 378.525 213.978Z" fill="white"/>
<path d="M369.379 191.507L331.356 168.587C331.029 168.434 330.657 168.408 330.313 168.515C329.968 168.622 329.676 168.854 329.494 169.165C329.311 169.476 329.251 169.844 329.325 170.198C329.4 170.551 329.603 170.864 329.896 171.075L367.918 193.995C368.244 194.148 368.616 194.173 368.961 194.067C369.305 193.96 369.597 193.728 369.78 193.417C369.963 193.106 370.023 192.738 369.949 192.384C369.875 192.031 369.671 191.718 369.379 191.507ZM367.816 200.819L315.406 169.228C315.085 169.118 314.735 169.124 314.418 169.244C314.101 169.365 313.836 169.594 313.67 169.89C313.504 170.186 313.447 170.531 313.509 170.864C313.571 171.198 313.748 171.499 314.01 171.716L366.355 203.319C366.681 203.472 367.053 203.497 367.398 203.391C367.742 203.284 368.034 203.052 368.217 202.741C368.4 202.43 368.46 202.062 368.386 201.708C368.312 201.355 368.108 201.042 367.816 200.831V200.819Z" fill="#F2F2F2"/>
<path d="M382.227 203.576L289.054 146.679C288.555 146.39 287.988 146.24 287.412 146.245C286.835 146.25 286.27 146.41 285.776 146.707C285.282 147.004 284.876 147.428 284.601 147.935C284.326 148.443 284.191 149.014 284.211 149.591V182.002C284.204 182.589 284.349 183.169 284.632 183.684C284.915 184.199 285.326 184.631 285.826 184.94L379.037 240.643C380.045 241.223 381.287 241.213 382.285 240.618C382.776 240.325 383.18 239.907 383.456 239.406C383.732 238.906 383.869 238.341 383.854 237.77L384.341 207.54C384.363 206.752 384.179 205.973 383.809 205.278C383.438 204.583 382.893 203.997 382.227 203.576Z" fill="#F47B56"/>
<path d="M359.923 220.263C363.267 224.944 369.147 226.253 373.042 223.2C376.936 220.147 377.385 213.875 374.042 209.207C370.698 204.537 364.817 203.217 360.923 206.269C357.028 209.322 356.58 215.581 359.923 220.263Z" fill="white"/>
<path d="M350.777 197.791L312.729 174.871C312.402 174.718 312.03 174.692 311.686 174.799C311.341 174.906 311.049 175.138 310.867 175.449C310.684 175.76 310.624 176.128 310.698 176.481C310.773 176.835 310.976 177.147 311.269 177.359L349.291 200.279C349.617 200.432 349.989 200.457 350.334 200.35C350.678 200.243 350.97 200.012 351.153 199.701C351.336 199.389 351.396 199.021 351.322 198.668C351.248 198.315 351.044 198.002 350.752 197.791H350.777ZM349.202 207.167L296.805 175.525C296.478 175.372 296.106 175.346 295.762 175.453C295.417 175.56 295.125 175.792 294.943 176.104C294.76 176.415 294.7 176.783 294.774 177.136C294.849 177.49 295.052 177.802 295.345 178.014L347.754 209.604C348.08 209.757 348.452 209.782 348.797 209.675C349.141 209.568 349.433 209.337 349.616 209.026C349.798 208.714 349.859 208.346 349.784 207.993C349.71 207.64 349.506 207.327 349.214 207.116L349.202 207.167Z" fill="#F2F2F2"/>
<path d="M358.849 207.399L265.649 150.502C265.15 150.213 264.583 150.063 264.006 150.067C263.429 150.072 262.865 150.231 262.371 150.529C261.876 150.826 261.471 151.25 261.196 151.757C260.921 152.265 260.786 152.836 260.807 153.413V185.825C260.803 186.411 260.951 186.988 261.236 187.501C261.521 188.013 261.933 188.443 262.434 188.749L355.645 244.453C356.653 245.033 357.895 245.023 358.894 244.427C359.384 244.134 359.788 243.716 360.063 243.215C360.339 242.715 360.476 242.151 360.462 241.58L360.949 211.349C360.969 210.565 360.787 209.789 360.419 209.097C360.051 208.405 359.51 207.82 358.849 207.399Z" fill="#68E1FD"/>
<path d="M358.849 207.399L265.649 150.502C265.15 150.213 264.583 150.063 264.006 150.067C263.429 150.072 262.865 150.231 262.371 150.529C261.876 150.826 261.471 151.25 261.196 151.757C260.921 152.265 260.786 152.836 260.807 153.413V185.825C260.803 186.411 260.951 186.988 261.236 187.501C261.521 188.013 261.933 188.443 262.434 188.749L355.645 244.453C356.653 245.033 357.895 245.023 358.894 244.427C359.384 244.134 359.788 243.716 360.063 243.215C360.339 242.715 360.476 242.151 360.462 241.58L360.949 211.349C360.969 210.565 360.787 209.789 360.419 209.097C360.051 208.405 359.51 207.82 358.849 207.399Z" fill="#68E1FD"/>
<path d="M336.532 224.085C339.875 228.766 345.756 230.075 349.65 227.022C353.545 223.969 353.993 217.697 350.65 213.029C347.306 208.36 341.425 207.039 337.531 210.092C333.637 213.144 333.227 219.403 336.531 224.085H336.532Z" fill="white"/>
<path d="M327.384 201.614L289.349 178.694C289.023 178.541 288.651 178.515 288.307 178.622C287.962 178.729 287.67 178.961 287.487 179.272C287.305 179.583 287.244 179.951 287.319 180.304C287.393 180.658 287.596 180.97 287.888 181.182L325.911 204.102C326.238 204.255 326.61 204.28 326.954 204.174C327.299 204.067 327.591 203.835 327.773 203.524C327.956 203.213 328.016 202.844 327.942 202.491C327.868 202.138 327.664 201.825 327.371 201.614H327.384ZM325.808 210.939L273.399 179.347C273.073 179.194 272.701 179.169 272.356 179.276C272.012 179.383 271.72 179.615 271.537 179.926C271.355 180.237 271.295 180.605 271.369 180.959C271.443 181.312 271.647 181.625 271.939 181.836L324.348 213.426C324.675 213.579 325.047 213.604 325.391 213.498C325.736 213.391 326.028 213.159 326.21 212.848C326.393 212.537 326.453 212.168 326.379 211.815C326.305 211.462 326.101 211.149 325.808 210.938V210.939Z" fill="#F2F2F2"/>
<path d="M236.531 204.217C230.507 209.409 225.952 216.092 223.323 223.597C218.685 236.424 230.279 257.381 230.279 257.381L248.317 243.081" fill="#FF8F6F"/>
<path d="M234.582 373.791L229.689 371.085L230.969 364.082C230.969 364.082 238.259 364.774 238.899 367.365" fill="#003B94"/>
<path d="M236.377 373.689C237.479 373.009 238.632 372.406 239.772 371.803C242.602 370.251 246.69 368.648 248.432 365.736C248.789 365.147 248.958 364.463 248.917 363.776C248.876 363.089 248.626 362.43 248.202 361.888C245.639 358.784 240.028 363.889 237.158 360.452C236.595 359.772 236.326 348.985 236.326 348.985L225.411 351.935C225.411 351.935 223.566 373.611 223.771 374.945C223.976 376.279 227.73 377.511 227.73 377.511C228.848 377.273 229.915 376.838 230.881 376.228C232.021 375.394 230.983 365.223 232.444 366.647C233.904 368.071 234.544 373.637 234.544 373.637C235.151 373.729 235.766 373.747 236.377 373.688V373.689Z" fill="#F47B56"/>
<path d="M255.427 384.269L250.533 381.602L251.813 374.599C251.813 374.599 259.103 375.292 259.743 377.882" fill="#003B94"/>
<path d="M257.271 384.167C258.373 383.487 259.526 382.885 260.666 382.282C263.497 380.73 267.584 379.127 269.326 376.215C269.683 375.626 269.852 374.942 269.811 374.255C269.77 373.568 269.52 372.909 269.096 372.367C266.533 369.263 260.922 374.368 258.053 370.931C257.489 370.251 257.22 359.464 257.22 359.464L246.305 362.414C246.305 362.414 244.448 384.167 244.653 385.45C244.858 386.732 248.611 388.015 248.611 388.015C249.729 387.777 250.796 387.343 251.763 386.732C252.903 385.899 251.865 375.728 253.326 377.152C254.786 378.575 255.426 384.142 255.426 384.142C256.037 384.226 256.657 384.235 257.271 384.167Z" fill="#F47B56"/>
<path d="M219.863 313.803L216.647 356.861C216.647 356.861 221.772 363.941 238.951 360.003L239.117 330.977M239.707 322.333C239.335 326.039 239.707 366.929 239.707 366.929C239.707 366.929 244.459 375.83 265.149 366.929L264.854 332.183" fill="#3E2928"/>
<path d="M218.262 328.027C219.672 329.002 220.158 323.987 221.632 324.847C226.991 327.963 232.679 330.475 238.593 332.337H238.721C238.862 332.268 239.015 332.229 239.171 332.221C239.328 332.213 239.484 332.236 239.631 332.29C239.779 332.344 239.913 332.427 240.028 332.534C240.142 332.641 240.233 332.77 240.297 332.914C243.949 334.005 247.668 334.861 251.43 335.479C256.26 336.249 260.256 332.671 265.214 332.427C265.214 313.419 265.304 259.318 257.22 247.775L233.302 239.72C233.187 241.695 221.696 255.034 221.977 271.298C222.297 289.626 219.915 306.916 219.505 312.649C219.441 313.624 218.314 326.989 218.262 328.027Z" fill="#3E2928"/>
<path d="M259.423 225.919L257.219 247.723C257.219 247.723 239.374 248.442 231.688 243.132V224.636" fill="#FF8F6F"/>
<path d="M282.111 211.566L280.292 214.054C281.262 212.03 282.118 209.954 282.854 207.834C283.367 206.384 281.048 205.807 280.536 207.256L280.266 208C280.489 207.23 280.698 206.457 280.894 205.678C280.934 205.525 280.944 205.366 280.922 205.208C280.901 205.051 280.848 204.9 280.768 204.764C280.687 204.627 280.58 204.508 280.453 204.414C280.326 204.319 280.181 204.25 280.027 204.212C279.873 204.174 279.713 204.167 279.557 204.191C279.4 204.215 279.25 204.27 279.115 204.353C278.98 204.435 278.862 204.544 278.769 204.673C278.677 204.801 278.61 204.947 278.575 205.101C278.072 207.114 277.469 209.101 276.769 211.053C277.16 209.32 277.443 207.563 277.615 205.793C277.769 204.268 275.373 204.332 275.232 205.793C275.033 207.807 274.673 209.802 274.156 211.758C274.156 211.074 274.092 210.39 273.964 209.706C273.946 209.536 273.893 209.371 273.806 209.223C273.72 209.074 273.603 208.946 273.464 208.846C273.399 208.578 273.322 208.313 273.234 208.051C273.143 207.783 272.961 207.554 272.719 207.407C272.477 207.259 272.19 207.202 271.91 207.245C271.629 207.288 271.373 207.429 271.186 207.642C271 207.855 270.894 208.128 270.889 208.411L270.735 217.389C270.302 218.319 269.736 219.184 269.057 219.954C270.209 220.753 271.321 221.609 272.388 222.519C273.339 223.325 274.246 224.181 275.104 225.084C275.869 224.131 276.608 223.156 277.32 222.16C277.408 222.085 277.486 221.999 277.55 221.903C279.683 218.742 281.888 215.629 284.161 212.566C285.109 211.514 283.021 210.347 282.111 211.566Z" fill="#FFB5A9"/>
<path d="M248.099 206.039C248.099 206.039 256.529 208.309 259.949 213.734C262.091 217.489 263.978 221.385 265.599 225.394L271.824 215.709C271.824 215.709 279.383 218.031 282.38 221.751C282.38 221.751 273.413 241.374 265.598 243.055C257.784 244.735 249.482 231.537 249.482 231.537C249.482 231.537 247.766 237.052 248.099 231.165" fill="#FF8F6F"/>
<path d="M253.454 227.009C251.003 225.012 249.154 222.375 248.112 219.391C247.099 215.941 248.368 212.913 249.546 209.707C250.822 206.528 251.567 203.161 251.75 199.741C251.852 196.381 251.468 193.021 251.237 189.672C251.204 189.528 251.204 189.379 251.237 189.236C250.11 185.453 247.804 182.246 243.257 181.861C231.483 180.861 230.817 193.918 230.907 199.228C230.997 204.538 231.56 208.129 227.653 210.348C223.745 212.567 220.927 218.39 224.655 223.098C228.383 227.804 225.039 226.086 222.554 230.267C220.069 234.448 220.709 239.669 225.808 241.554C230.907 243.439 254.607 239.899 256.784 237.706C257.557 236.822 257.957 235.672 257.899 234.5C257.368 231.549 255.789 228.888 253.454 227.009Z" fill="#007F68"/>
<path d="M265.034 119.321C267.03 122.197 268.183 125.573 268.364 129.069C268.588 130.669 268.199 132.295 267.276 133.622C266.884 134.055 266.358 134.344 265.782 134.444C265.207 134.544 264.614 134.449 264.098 134.174C263.451 133.915 262.866 133.522 262.382 133.02C261.948 132.611 261.576 132.14 261.28 131.622L260.973 131.019C260.89 131.177 260.786 131.323 260.665 131.455C260.36 131.693 259.998 131.847 259.615 131.904C258.975 132.023 258.313 131.942 257.719 131.673C256.303 131.059 255.125 130.001 254.362 128.659C253.443 127.2 252.931 125.522 252.876 123.798C252.783 123.108 252.841 122.407 253.047 121.742C253.253 121.077 253.601 120.466 254.068 119.95C254.474 119.558 254.991 119.301 255.548 119.213C256.105 119.126 256.675 119.213 257.181 119.462C257.694 119.667 258.167 119.962 258.577 120.335C258.927 120.632 259.236 120.972 259.499 121.348L259.729 121.758V120.617L262.292 121.617L262.548 128.826C262.566 129.342 262.726 129.843 263.01 130.275C263.25 130.692 263.619 131.02 264.06 131.211C265.298 131.699 265.87 130.63 265.777 128.005C265.649 125.405 264.792 122.894 263.304 120.758C261.969 118.586 259.983 116.89 257.629 115.91C256.775 115.475 255.81 115.307 254.86 115.429C253.909 115.55 253.017 115.955 252.299 116.59C251.534 117.36 250.952 118.292 250.595 119.318C250.238 120.343 250.116 121.436 250.237 122.515C250.384 125.264 251.269 127.923 252.799 130.211C254.017 132.469 255.938 134.27 258.269 135.341C259.081 135.681 259.953 135.851 260.832 135.841C261.404 135.88 261.977 135.774 262.497 135.534L263.01 135.251L264.56 138.137L264.303 138.317C264.06 138.454 263.808 138.573 263.548 138.676C263.138 138.853 262.708 138.974 262.266 139.036C261.701 139.112 261.129 139.112 260.563 139.036C259.821 138.947 259.093 138.761 258.398 138.484C256.425 137.634 254.672 136.344 253.273 134.713C251.616 132.877 250.274 130.78 249.302 128.505C248.33 126.332 247.773 123.995 247.662 121.617C247.524 119.617 247.932 117.618 248.841 115.833C249.596 114.335 250.899 113.186 252.479 112.626C254.135 112.08 255.935 112.172 257.526 112.883C260.636 114.199 263.26 116.449 265.034 119.321ZM259.384 128.441C259.804 127.903 259.994 127.22 259.909 126.542C259.889 125.706 259.655 124.89 259.23 124.17C258.884 123.541 258.339 123.045 257.68 122.759C257.428 122.629 257.142 122.578 256.86 122.615C256.579 122.652 256.315 122.773 256.104 122.964C255.883 123.216 255.719 123.512 255.622 123.833C255.525 124.154 255.497 124.492 255.541 124.824C255.57 125.67 255.821 126.493 256.271 127.209C256.641 127.861 257.211 128.374 257.898 128.672C258.139 128.795 258.412 128.839 258.679 128.798C258.946 128.756 259.193 128.631 259.384 128.441ZM416.291 258.202C418.29 261.076 419.444 264.453 419.621 267.95C419.845 269.55 419.456 271.176 418.533 272.503C418.14 272.933 417.614 273.221 417.039 273.321C416.464 273.421 415.872 273.327 415.356 273.055C414.711 272.793 414.126 272.4 413.639 271.901C413.207 271.49 412.836 271.019 412.537 270.502L412.23 269.9C412.143 270.056 412.04 270.202 411.922 270.336C411.618 270.576 411.256 270.731 410.872 270.785C410.238 270.913 409.578 270.836 408.989 270.567C407.571 269.95 406.393 268.887 405.632 267.54C404.705 266.079 404.187 264.395 404.133 262.666C404.036 261.976 404.093 261.274 404.299 260.608C404.505 259.943 404.855 259.332 405.325 258.818C405.729 258.427 406.243 258.171 406.798 258.084C407.353 257.996 407.922 258.083 408.425 258.331C408.939 258.535 409.412 258.83 409.821 259.203C410.171 259.505 410.481 259.85 410.744 260.229L410.987 260.639V259.498L413.549 260.485L413.806 267.694C413.828 268.209 413.987 268.709 414.266 269.143C414.508 269.56 414.876 269.888 415.317 270.079C416.598 270.567 417.124 269.502 417.047 266.873C416.917 264.269 416.061 261.754 414.574 259.613C413.239 257.449 411.259 255.758 408.912 254.778C408.059 254.343 407.095 254.174 406.145 254.293C405.195 254.412 404.302 254.813 403.582 255.445C402.821 256.224 402.245 257.165 401.897 258.197C401.549 259.23 401.438 260.328 401.572 261.409C401.716 264.158 402.601 266.817 404.133 269.104C405.399 271.309 407.339 273.049 409.668 274.068C410.48 274.406 411.351 274.58 412.23 274.581C412.802 274.614 413.373 274.508 413.895 274.273L414.408 273.991L415.958 276.877L415.702 277.057C415.459 277.194 415.206 277.314 414.946 277.416C414.534 277.586 414.104 277.706 413.665 277.775C413.096 277.85 412.518 277.85 411.948 277.775C411.21 277.681 410.486 277.492 409.796 277.211C407.824 276.364 406.071 275.079 404.671 273.452C403.014 271.612 401.672 269.51 400.701 267.232C399.728 265.059 399.171 262.722 399.061 260.344C398.922 258.349 399.329 256.353 400.239 254.572C400.996 253.073 402.298 251.921 403.877 251.353C405.538 250.812 407.34 250.904 408.937 251.61C412.011 252.995 414.58 255.298 416.291 258.202ZM410.641 267.322C410.852 267.056 411.008 266.752 411.1 266.426C411.193 266.1 411.22 265.759 411.179 265.423C411.157 264.586 410.919 263.769 410.488 263.051C410.148 262.422 409.606 261.925 408.95 261.64C408.7 261.508 408.414 261.456 408.133 261.49C407.852 261.524 407.587 261.644 407.375 261.832C407.15 262.082 406.982 262.377 406.883 262.698C406.783 263.02 406.754 263.359 406.798 263.692C406.828 264.534 407.079 265.352 407.528 266.065C407.897 266.72 408.468 267.237 409.155 267.54C409.395 267.665 409.667 267.711 409.934 267.672C410.201 267.633 410.448 267.51 410.641 267.322Z" fill="#F47B56"/>
<path style="mix-blend-mode:multiply" opacity="0.46" d="M160.998 312.892L117.633 288.188L74.2817 312.942C74.2817 312.942 98.4037 328.025 119.991 340.698C133.698 331.001 145.881 319.908 160.998 312.892Z" fill="url(#paint4_linear_558_777)"/>
</g>
</g>
<g filter="url(#filter0_d_558_777)">
<path d="M50 261.881V315.751L91.968 339.786L139.355 311.761V257.891" fill="black"/>
</g>
<path d="M50 261.881V315.751L91.968 339.786L139.355 311.761V257.891" fill="#FF9271"/>
<path d="M91.9692 285.917V339.787L139.356 311.761V257.891L91.9692 285.917Z" fill="#DF5C34"/>
<path d="M50 261.88L98.694 234.126L139.356 257.893L91.969 285.918L50 261.88Z" fill="#F47B56"/>
<path d="M93.0828 246.49C98.0199 246.157 102.949 247.242 107.29 249.619C109.776 251.081 111.134 252.607 111.326 254.198C111.518 255.788 110.698 257.173 108.764 258.341C107.846 258.908 106.836 259.307 105.779 259.521C104.91 259.726 104.019 259.816 103.127 259.79L102.153 259.713C102.244 259.93 102.304 260.159 102.333 260.393C102.302 260.947 102.125 261.482 101.82 261.945C101.313 262.805 100.588 263.517 99.7198 264.01C97.6951 265.213 95.3744 265.826 93.0198 265.78C90.5833 265.846 88.176 265.238 86.0628 264.023C84.0638 262.843 83.0398 261.457 82.9628 259.867C82.9703 259.025 83.2145 258.202 83.6675 257.492C84.1206 256.782 84.7642 256.214 85.5248 255.852C86.2546 255.397 87.0493 255.055 87.8818 254.839C88.5456 254.647 89.2289 254.531 89.9188 254.493H90.6238L89.3418 253.723L92.9418 251.479L101.282 256.391C101.92 256.734 102.632 256.914 103.357 256.914C104.081 256.914 104.794 256.734 105.432 256.391C107.201 255.288 106.569 253.839 103.537 252.043C100.314 250.269 96.6514 249.454 92.9808 249.696C89.0903 249.744 85.2844 250.838 81.9628 252.864C78.9398 254.754 77.4408 257.007 77.4668 259.624C77.4668 262.188 79.0678 264.472 82.1808 266.306C85.5785 268.206 89.4372 269.126 93.3268 268.961C97.199 269.024 101.013 268.012 104.344 266.036C105.497 265.353 106.531 264.487 107.406 263.471C107.991 262.85 108.428 262.105 108.686 261.291L108.866 260.483L113.619 260.752C113.627 260.897 113.627 261.042 113.619 261.188C113.532 261.581 113.416 261.966 113.273 262.342C113.066 262.945 112.791 263.522 112.453 264.062C111.965 264.789 111.398 265.46 110.763 266.062C109.925 266.87 109.001 267.585 108.008 268.192C105.148 269.909 101.98 271.05 98.6818 271.552C95.088 272.18 91.4185 272.245 87.8048 271.744C84.5199 271.357 81.3451 270.319 78.4658 268.691C76.1409 267.46 74.2793 265.507 73.1618 263.125C72.7051 262.086 72.4692 260.964 72.4692 259.829C72.4692 258.694 72.7051 257.571 73.1618 256.532C74.2688 254.107 76.1112 252.092 78.4278 250.773C82.8417 248.06 87.9026 246.582 93.0828 246.49ZM97.7458 259.752C97.5758 258.861 96.9758 258.112 96.1448 257.751C95.1357 257.156 93.9861 256.842 92.8148 256.84C91.7259 256.799 90.6485 257.075 89.7138 257.635C89.3372 257.819 89.0184 258.103 88.7925 258.456C88.5665 258.809 88.4421 259.217 88.4328 259.636C88.5498 260.526 89.1228 261.29 89.9448 261.65C90.9769 262.24 92.1503 262.537 93.3388 262.51C94.4814 262.539 95.6091 262.245 96.5928 261.663C96.9576 261.496 97.2658 261.226 97.4798 260.887C97.6938 260.548 97.8043 260.153 97.7978 259.752" fill="#3E2928"/>
<defs>
<filter id="filter0_d_558_777" x="0" y="232.891" width="189.355" height="181.895" filterUnits="userSpaceOnUse" color-interpolation-filters="sRGB">
<feFlood flood-opacity="0" result="BackgroundImageFix"/>
<feColorMatrix in="SourceAlpha" type="matrix" values="0 0 0 0 0 0 0 0 0 0 0 0 0 0 0 0 0 0 127 0" result="hardAlpha"/>
<feOffset dy="25"/>
<feGaussianBlur stdDeviation="25"/>
<feColorMatrix type="matrix" values="0 0 0 0 0.209139 0 0 0 0 0.0691446 0 0 0 0 0.478091 0 0 0 0.497159 0"/>
<feBlend mode="normal" in2="BackgroundImageFix" result="effect1_dropShadow_558_777"/>
<feBlend mode="normal" in="SourceGraphic" in2="effect1_dropShadow_558_777" result="shape"/>
</filter>
<linearGradient id="paint0_linear_558_777" x1="6693.55" y1="2883.63" x2="5299.35" y2="4775.32" gradientUnits="userSpaceOnUse">
<stop stop-color="#78B46A"/>
<stop offset="0.03" stop-color="#7F3500"/>
<stop offset="1" stop-color="white"/>
</linearGradient>
<linearGradient id="paint1_linear_558_777" x1="7314.2" y1="1813.3" x2="4390.13" y2="5023.51" gradientUnits="userSpaceOnUse">
<stop stop-color="#78B46A"/>
<stop offset="0.03" stop-color="#7F3500"/>
<stop offset="1" stop-color="white"/>
</linearGradient>
<linearGradient id="paint2_linear_558_777" x1="4346.24" y1="1008.16" x2="2153.81" y2="3415.4" gradientUnits="userSpaceOnUse">
<stop stop-color="#78B46A"/>
<stop offset="0.03" stop-color="#7F3500"/>
<stop offset="1" stop-color="white"/>
</linearGradient>
<linearGradient id="paint3_linear_558_777" x1="10731.2" y1="4379.83" x2="9417.33" y2="3420.51" gradientUnits="userSpaceOnUse">
<stop stop-color="white" stop-opacity="0"/>
<stop offset="0.99" stop-color="#DC841E"/>
</linearGradient>
<linearGradient id="paint4_linear_558_777" x1="7068.79" y1="1436.27" x2="3923.49" y2="5369.61" gradientUnits="userSpaceOnUse">
<stop stop-color="#78B46A"/>
<stop offset="0.03" stop-color="#7F3500"/>
<stop offset="1" stop-color="white"/>
</linearGradient>
<clipPath id="clip0_558_777">
<rect x="41" y="55" width="480" height="509" rx="24" fill="white"/>
</clipPath>
</defs>
</svg>
